<?xml version='1.0' encoding='utf-8'?>
<svg xmlns="http://www.w3.org/2000/svg" version="1.0" viewBox="0 0 1241.8 1552"> <clipPath id="b"> <path d="m312.74 100.04c-1.16 0.69-1.86 1.65-2.1 2.89-2.59 13.51-6.36 35.23-11.31 65.14-0.65 3.93-0.99 8.58-1.04 13.95-9.75 51.43-15.34 103.34-16.77 155.73-0.59 21.86 0.77 43.92 4.08 66.17 0.07 0.43 0.31 0.6 0.74 0.5 0.38-0.09 0.82-0.35 1.33-0.76 10.25-8.24 19.24-17.55 26.99-27.94 11.59-12.22 22.17-26.19 31.9-39.92 15.6-22.02 28.59-45.92 38.96-71.7 7.02 34.81 4.79 71.3-8.45 104.3-0.13 0.33 0.18 0.66 0.51 0.54 25.77-9.15 49.53-32.29 46.93-61.69-1.32-14.87-5.92-30.5-10.9-46.82-17.08-55.97-39.88-109.53-68.4-160.67-3.83-8.35-8.92-17.24-15.28-26.68-2.31-3.43-5.2-4.33-8.69-2.7-0.33 0.15-0.57 0.44-0.67 0.79zm681.18 52.94c-34.39 53.94-66.21 108.1-95.46 162.47-5.27 9.79-26.23 49.62-22.83 59.79 14.01 41.83 40.06 73.8 78.15 95.91 0.41 0.24 0.89-0.18 0.7-0.61-13.42-30.5-18.48-62.52-15.19-96.06l0.69 0.02c0.33 0.01 0.56 0.18 0.69 0.49 10.3 24.35 20.66 48.68 30.85 73.08 14.04 33.64 29.28 66.29 51.85 95.48 5.21 6.63 11.47 12.64 18.79 18.05 7.64 5.66 16.84 9.48 26.6 8.43 0.32-0.03 0.62-0.17 0.85-0.4 17.97-17.37 23.47-46.3 25.11-70.39 1.17-17.23 2.1-34.47 2.78-51.74 0.74-70.83-7.37-140.56-24.33-209.2 0.23-6.24-0.63-13.2-2.56-20.88-9.1-36.25-18.5-72.42-28.2-108.51-1.18-4.37-2.87-8.53-5.08-12.47-5.62-10.01-11.26-2.7-15.64 3.22-11.69 15.83-20.56 35.93-27.77 53.32zm-563.1 246.68-8.88 38.83c-0.14 0.59-0.74 0.94-1.32 0.77-38.08-10.98-54.96-32.82-56.08-72.37-0.02-0.49-0.47-0.85-0.95-0.75-0.43 0.09-0.86 0.39-1.3 0.9-21.81 25.13-43.57 50.26-65.27 75.37-29.69 33.15-48.93 55.03-57.7 65.66-20.15 24.41-38.94 50.09-56.35 77.02-0.42 0.65 0.11 1.5 0.88 1.41 9.51-1.07 19.16-1.27 28.93-0.6 1.59 0.11 3.41-0.21 4.07 1.63 0.11 0.3 0.05 0.63-0.15 0.89l-3.29 4.15c-0.7 0.87-0.25 2.18 0.84 2.45l5.2 1.31c1.07 0.26 1.75 1.3 1.56 2.38-0.51 2.95-1.57 5.65-3.2 8.1-19.1 28.71-36.62 58.34-52.57 88.9-0.61 1.15-0.95 2.16-1.04 3.02-0.02 0.2 0.12 0.39 0.32 0.42s0.4-0.1 0.44-0.3c0.06-0.28 0.07-0.56 0.03-0.85-0.05-0.35 0.02-0.71 0.18-1.03 16.23-31.27 34.13-61.55 53.72-90.83 0.35-0.52 0.67-0.51 0.97 0.04 1.29 2.31 4.4 2.53 6.14 0.09 6.26-8.81 12.46-17.76 18.61-26.85 0.24-0.34 0.75-0.33 0.97 0.02 0.3 0.48 0.73 1.52 0.74 2.14 0.36 23.49 14.83 31.67 31.76 43.33 14.07 9.7 24.74 22.43 32.01 38.19 0.14 0.31 0.18 0.62 0.11 0.95-0.11 0.49 0.1 0.86 0.61 1.11 0.31 0.15 0.55 0.4 0.69 0.72l12.87 30.17 1.57 13.19 7.65 83.45-2.15 2.3c-2.38 1.75-4.88 1.6-7.51-0.45-8.37-2.35-16.72-4.4-25.07-6.15-7.59-1.59-12.9-3.04-15.95-4.35-37.47-16.04-37.75-62.74-37.94-96.51 0-0.34-0.14-0.61-0.41-0.8-4.81-3.43-10.34-6.38-16.47-6.46-60.31-0.79-88.81 58.53-107.03 106.35l-6.87 17.93c-0.21 0.54 0.16 1.13 0.74 1.2 7.47 0.82 14.99 1.58 22.56 2.28 2.13 0.19 2.51 1.6 1.85 3.44-6.61 18.51-9.21 37.59-7.79 57.22 0.9 11.59 3.12 22.73 6.67 33.41 0.21 0.63 0.93 0.92 1.52 0.62l18.17-9.35c0.53-0.27 1.15 0.12 1.14 0.71-0.38 18.27 0.1 35.27 6.71 52.56 0.23 0.61 1.01 0.81 1.51 0.38l20.41-17.51 0.62 0.76c-39.67 37.35-77.18 76.76-112.55 118.22-0.29 0.35-0.46 0.56-0.49 0.65-0.22 0.63 0 0.88 0.65 0.75l47.97-9.01 17.36 0.04c7.87 2 15.82 2.58 23.84 1.73 0.32-0.03 0.61-0.15 0.86-0.36 88.72-72.27 186.88-132.48 266.53-215.43 20.66-21.53 38.04-45.05 52.27-71.33 4.99-9.23 3.95-21.52 3.73-31.6-0.09-4.11-0.27-8.15-0.56-12.12-0.04-0.56 0.63-0.88 1.04-0.5 2.02 1.86 3.44 3.83 4.26 5.92l3.18 47.1c-10.91 74.97-70.56 136.33-129.97 177.64-33.67 23.41-54.79 38.19-63.36 44.34-32.25 23.18-59.38 44.35-83.37 71.93-0.38 0.44-0.22 1.12 0.32 1.34 27.3 11.27 60.36 29.45 77.51 53.13 5.42 7.48 6.92 15.59 4.51 24.34-0.2 1.95-0.1 3.63-0.93 5.4-5.89 12.6-11.57 25.94-19.04 37.27-29.2 44.27-66.09 76.57-122.05 77.07-0.36 0-0.52 0.18-0.48 0.53 0.66 6.39 2.48 12.07 5.45 17.05 4.63 13.25 12.67 22.58 24.12 27.99 2.33 1.1 8.65 3.2 18.96 6.29 47.7 14.31 97.13 25.74 144.2 26.39 54.55 0.75 105.4-12.82 152.55-40.69 52.81-31.22 94.12-78.36 138.02-120.25 9.95-9.49 33.46-25.99 48.23-26.04 5.79-0.02 19.7 2.71 18.73 10.55-20.11-7.91-39.68-0.19-53.92 15.01-12.01 12.81-28.51 30.14-49.5 51.99-40.56 42.22-83.98 78.25-138.46 102.33-70.08 28.66-147.25 28.9-220.45 9.96-23.1-5.98-45.66-12.14-69.62-16.27-0.25-0.05-0.5-0.03-0.75 0.06l-0.5 0.18c-0.45 0.15-0.96 0.08-1.51-0.21l-19.04-7.58c-0.55-0.22-1.06 0.39-0.75 0.9 13.43 21.58 36.84 35.66 60 44.46 66.31 25.2 139.92 24.84 206.28-0.05l9.8-3.66c2.21-0.65 4.15-0.21 5.82 1.33 17.81 16.54 32.75 33.17 44.82 49.89 29.45 40.8 50.04 84.19 65.71 131.93 0.42 1.3 2.02 1.76 3.07 0.9l0.81-0.67 2.18-0.46c76.35-15.5 155.07-51.71 204.2-114.27 0.36-0.46 1.04-0.48 1.42-0.04 8.85 10.13 15.05 21.69 18.6 34.68 0.28 1.02 1.45 1.5 2.37 0.97 1.73-1 3.56-2.22 5.49-3.67 43.29-32.51 77.05-77.55 106.64-122.3 0.59-0.89 1.3-1.18 2.14-0.87 0.36 0.13 0.6 0.48 0.59 0.87l-1.04 30.24c-0.02 0.61 0.7 0.96 1.17 0.55l33.74-29.68c27.59-25.13 54.19-51.29 79.82-78.46 33.78-35.81 53.85-79.29 43.22-129.45-1.55-15.53-4.63-30.78-9.26-45.76-0.05-0.14-0.08-0.27-0.11-0.39-0.22-1.03 0.91-1.81 1.79-1.24 29.57 19.07 52.36 44.41 68.37 76.01l14.42 41.08c0.17 0.49 0.81 0.58 1.12 0.17 14.66-19.85 25.77-41.63 33.32-65.33 14.54-45.61 8.39-96.08-10.85-140.07-0.14-0.33 0.09-0.69 0.45-0.7 0.23-0.01 0.49 0.06 0.78 0.19 13.27 6.21 25.6 14 36.99 23.37 1.24 1.03 2.15 0.79 2.72-0.72 0.11-0.3 0.06-0.82-0.14-1.57-0.19-0.67-0.31-1.18-0.37-1.53-12.31-72.45-51.3-135.09-114.84-173.11-0.43-0.26-0.2-0.92 0.3-0.85 8.06 1.11 16.03 2.27 23.92 3.48 36.37 5.59 71.32 15.76 103.56 33.66 0.43 0.24 0.92-0.21 0.71-0.65-21.47-45.53-47.84-87.75-79.11-126.66-54.98-68.4-127.58-116.56-215.18-127.94-0.98-0.13-1.27-0.64-0.88-1.54 0.48-1.11 1.35-2.25 2.6-3.42 19.85-18.69 42.17-33.65 66.95-44.9 1.28-0.59 1.69-2.2 0.85-3.33-0.27-0.35-0.76-0.85-1.49-1.48-28.23-24.52-57.18-48.15-86.86-70.89-16.44-12.6-32.54-25.58-48.66-38.65-0.73-0.59-0.63-0.98 0.28-1.18 0.4-0.09 1.03-0.04 1.9 0.13 21.32 4.27 41.97 10.34 61.95 18.22 0.55 0.21 0.99-0.48 0.56-0.88-35.81-33.65-72.85-65.46-111.1-95.44-4.04-12.15-7.26-24.46-9.65-36.94-5.72-29.84 18.32-59.4 41.07-75.13 0.43-0.3 0.28-0.97-0.23-1.06-35.49-6.61-71.08-10.44-106.78-11.49-65.44-1.93-142.37-3.07-199.67 34.87-42.35 28.04-72.6 66.08-90.75 114.11zm-140.02 290.19c0.84 2.5 1.13 4.23 3.42 5.81 5.49 3.77 10.98 7.58 16.48 11.42 0.32 0.22 0.53 0.15 0.64-0.22 1.13-3.8 1-7.42-0.39-10.86-3.62-8.91-6.37-16.11-8.26-21.62-0.1-0.3-0.11-0.62-0.01-0.92 0.41-1.21 0.14-1.95-0.8-2.21-0.39-0.11-0.66-0.36-0.8-0.74-3.89-11.05-10.7-20-20.42-26.86-15.41-16.04-37.91-8.97-52.15-27.35-0.62-0.81-1.25-1.42-1.9-1.84-0.63-0.41-1.48-0.01-1.56 0.74-1.05 9.97-1.3 19.82-0.77 29.55 0.3 5.39 1.09 9.65 2.38 12.76 5.15 12.45 21 19.99 33.84 23.52 10.15 2.79 20.25 5.73 30.3 8.82zm-14.06 28.12c0.02 0.11 0.03 0.22 0.02 0.32 0 0.3-0.15 0.45-0.45 0.46-0.11 0-0.22 0-0.32 0.01-0.19 0.01-0.37 0.06-0.53 0.15l-6.06 3.52-3.47 1.32c-0.28 0.11-0.41 0.31-0.38 0.6 1.18 15.4 8.12 34.29 24.17 38.97 4.02 2.27 8.16 3 12.43 2.19 5-0.94 23.28 2.14 18.21-9.53 0.94-4.81 0.71-9.53-0.68-14.14-0.39-12.19-9.79-15.94-19.78-18.27-0.91-0.21-1.56-1-1.61-1.93-0.32-7.05 2.68-18.32-7.26-19.98l-10.72-4.25c-0.37-0.15-0.59-0.02-0.65 0.38zm-185.45 372.69c24.19 1.77 47.83 4.78 70.92 9.03 0.73 0.13 1.39 0.31 2 0.54 2.18 1.55 4.36 2.04 6.53 1.48l13.72 3.13c15.84 4.83 33.77 9.73 53.78 14.68 16.39 4.05 32.61 4.63 48.67 1.74 0.31-0.06 0.54-0.22 0.71-0.49 1.31-2.11 1.82-4.21 1.55-6.32-0.22-1.64-1.26-3.49-3.12-5.56-12.36-13.75-26.88-24.3-43.55-31.65-25.7-13.18-55.69-22.84-84.95-26.51-4.78-0.6-11.33-0.97-19.65-1.1-6.84-0.11-13.4-0.25-19.68-0.42-31.45 0.63-55.35 18.35-75.12 41.14-0.17 0.19-0.27 0.36-0.31 0.53-0.09 0.33 0.16 0.65 0.5 0.64zm-33.42 111.92c1.16 58.64 60.11 92.12 112.16 94.7 0.43 0.02 0.69-0.48 0.42-0.82-8.15-10.27-14.52-21.57-19.11-33.89 0.07-2.56-0.64-4.64-2.15-6.24-0.23-0.24-0.55-0.39-0.88-0.42-2.55-0.16-4.47-0.41-5.75-0.74-19.88-5.19-38.29-13.96-55.22-26.29-7.26-5.31-13.73-11.68-19.4-19.09-3.57-7.88-6.53-15.93-8.88-24.15-0.03-0.11-0.14-0.18-0.25-0.17-0.12 0.01-0.2 0.11-0.21 0.22z"/> </clipPath> <clipPath id="a"> <path d="m680.22 665.31c-0.57-0.01-1.16-0.2-1.77-0.58-0.29-0.18-0.59-0.2-0.9-0.06-23.14 10.41-40.83 27.79-53.71 49.44-0.17 0.29-0.4 0.53-0.68 0.72-1.25 0.85-1.15 2.42-1.58 3.33-2 4.23-3.88 8.31-5.64 12.24-0.62 1.39 1.06 2.67 2.24 1.71 5.85-4.76 12.07-8.39 18.67-10.9 19.44-5.66 37.72-7.97 57.89-7.92 42.58 0.11 86.45 1.87 114.76-37.47 2.2-3.05 3.87-6.67 5.77-10.1 0.3-0.54-0.08-1.21-0.7-1.22-10.27-0.17-20.5 0.88-30.76 0.97-19.1 0.16-38.41-1.93-57.26-4.98-16.25-2.63-32.32-4.91-46.33 4.82zm1.47 62.36-19.71 3.07c-0.32 0.05-0.54 0.33-0.51 0.65 0.19 2.09 0.37 4.2 0.53 6.35 1 13.65-9.15 25.35-23.42 21.86-4.95-1.21-10.02-5.38-14.64-8.37-0.47-0.31-1.08-0.3-1.54 0.03-5.79 4.15-19.17 16.48-11.57 24.38 16.51 17.18 41.04 29.26 65.43 23.74 7.72 0.85 17.83 1.63 22.77-2.36 12.25-9.92 21.49-22.13 27.74-36.64 0.13-0.31 0.04-0.5-0.29-0.58l-11.14-2.91c-0.35-0.09-0.58 0.03-0.71 0.36-6.59 18.19-18.72 31.29-36.38 39.28-1.61-0.04-2.21-2.69-1.32-3.85 0.2-0.26 0.75-0.56 1.65-0.89 5.03-1.85 1.78-5.13 2.26-8.33 1.2-8.05 11.16-5.63 12.1-15.04l7.85-12.2 3.02-7.72 0.32-21.33c0.01-0.35-0.16-0.51-0.5-0.49z"/> </clipPath> <g transform="translate(1831.3 -5.5547)"> <path d="m-859.61 1310.2c-0.05-0.36-0.48-0.53-0.77-0.31-31.05 23.77-60.37 52.27-81.53 85.37-6.98 10.91-12.61 22.46-16.88 34.67-0.2 0.55-0.86 0.76-1.33 0.42-15.01-10.67-26.06-24.52-33.14-41.55-0.43-1.03-0.88-1.88-1.35-2.53-0.27-0.39-0.56-0.4-0.86-0.03-29.55 35.71-60.28 70.39-92.18 104.02-0.51 0.54-1.38 0.49-1.83-0.09l-22.78-29.6c-0.35-0.45-0.99-0.54-1.45-0.21-69.16 49.58-145.69 81.98-229.59 97.19-0.3 0.05-0.58-0.16-0.61-0.47-6.31-70.77-46.45-139.21-93.18-190.99-4.06-4.5-9.23-9.66-15.5-15.49-1.14-1.05-1.73-1.49-3.36-0.93-85.15 29.48-204.37 26.55-259.1-58.23-0.32-0.5-0.97-1.01-1.38-1.55-0.19-0.24-0.42-0.41-0.71-0.51-52.13-18.72-86.53-54.88-92.13-111.11-0.08-0.77-0.26-5.25-0.53-13.44-0.35-10.46-2.48-20.34-6.37-29.64-9.54-22.82-23.8-49.18-8.06-69.71 10.66-13.91 23.12-30.6 37.39-50.08 12.91-17.62 29.67-33.83 45.63-48.84 0.55-0.51 0.85-1.23 0.83-1.98-0.04-1.69-0.26-3.62-0.67-5.81-2.38-12.81-3.07-25.81-2.07-39 0.06-0.72-0.85-1.08-1.31-0.52l-20.08 24.7c-0.18 0.22-0.55 0.1-0.55-0.19-0.56-48.43 3.3-97.57 15.4-144.59 0.19-0.71-0.5-1.34-1.2-1.1l-35.17 12.2c-0.39 0.14-0.77-0.23-0.65-0.62 24.87-83.97 65.15-161.85 122.52-228.21 0.33-0.39 0.12-0.99-0.38-1.08-0.15-0.03-0.41 0-0.8 0.09-19.27 4.47-37.97 10.51-56.1 18.13-0.41 0.17-0.82-0.23-0.65-0.64 27.41-66.93 66.41-124.41 116.41-176.46 0.23-0.24 0.34-0.53 0.33-0.87-0.04-0.83 0.08-1.87-0.1-2.65-3.17-13.56-4.96-24.67-5.37-33.34-1.91-40.7-0.41-84.62 4.5-131.75 7.97-76.31 23.68-151.47 44.72-225.2 12.6-44.13 50.17-11.52 66.07 6.12 38.81 43.05 63.59 70.6 74.34 82.66 37.92 42.52 79.03 78.26 128.58 106.17 5.24 2.95 9.37 3.02 15.68 1.75 84.26-16.96 173.22-13.3 256.64 1.95 5.32 0.97 7.36-0.73 10.88-4.84 48.41-56.68 96.58-113.56 144.51-170.64 11.6-13.81 33.13-36.14 51.25-15.66 3.67 4.14 6.72 8.92 9.17 14.35 29.63 65.66 57.26 132.06 84.27 198.82 32.67 80.74 49.24 164.85 49.73 252.32 0.16 29.53-0.02 59.77 2.23 89.19 3.79 49.38 18.94 97.02 35.15 143.47 0.38 1.07-0.86 1.99-1.78 1.31-26.52-19.69-54.46-37.11-83.82-52.26-1.59-0.82-2.16-0.37-1.69 1.35 0.06 0.23 0.49 0.77 1.29 1.63 12.23 13.14 23.47 27.09 33.7 41.85 41.22 59.43 72.7 123.66 94.45 192.69 0.71 2.27 1.22 4.51 1.53 6.74 0.05 0.35-0.33 0.61-0.64 0.43l-32.55-18.48c-0.63-0.35-1.37 0.23-1.16 0.92 7.06 23.88 8.38 46.56 7.17 71.35-1.64 33.45-3.18 67.15-4.62 101.12-0.03 0.51-0.52 0.85-1 0.7-0.09-0.03-0.25-0.26-0.48-0.67-6.73-12.65-14.64-24.46-23.71-35.44-0.57-0.7-0.89-0.6-0.95 0.3-0.02 0.28 0.01 0.78 0.09 1.49 3.15 27.63 1.97 54.89-3.56 81.77-12.84 62.42-59.62 108.65-108.31 146.89-0.37 0.29-0.92 0.04-0.93-0.44-0.15-9.48-1.48-18.79-4.01-27.93-0.25-0.9-1.41-1.12-1.98-0.38-26.08 34.07-59.98 61.66-92.67 89.05-2.34 1.96-5.71 5.15-8.83 7.39-0.43 0.3-0.61 0.19-0.54-0.33 1.36-11.43 4.13-22.46 8.32-33.1 0.17-0.41 0.22-0.77 0.17-1.08z" fill="#111a32"/> <g transform="translate(-1860.9 -23.633)" clip-path="url(#b)" fill="none"> <path d="m345.21 99.76-0.23 0.13c-0.13 0.07-0.17 0.18-0.13 0.32l30.8 108.31" stroke="#c6cedb" vector-effect="non-scaling-stroke"/> <path d="m375.65 208.52c-3.43 4.83-7.61 8.39-12.54 10.7-0.33 0.15-0.44 0.4-0.33 0.75 0.21 0.71 0.1 1.19-0.32 1.44-17.77 10.92-34.65 21.75-54.67 28.38" stroke="#7a89a3" vector-effect="non-scaling-stroke"/> <path d="m307.79 249.79 3.64-113.41c0.01-0.35-0.14-0.61-0.46-0.77-0.37-0.18-0.85-0.21-1.44-0.09" stroke="#c6cedb" vector-effect="non-scaling-stroke"/> <path d="m309.53 135.52c-0.02-0.09-0.06-0.17-0.11-0.24-0.07-0.08-0.1-0.17-0.09-0.28l3.41-34.96" stroke="#7a89a3" vector-effect="non-scaling-stroke"/> <path d="m385.52 264.1-1.13-11.46" stroke="#8f9cac" vector-effect="non-scaling-stroke"/> <path d="m384.39 252.64-8.74-44.12" stroke="#b2b9c7" vector-effect="non-scaling-stroke"/> <path d="m309.53 135.52c-0.09 0.18-0.2 0.36-0.33 0.54-0.11 0.17-0.19 0.36-0.22 0.57-2.25 14.33-5.4 28.45-9.44 42.38-0.29 1.01-0.71 2.02-1.25 3.01" stroke="#b2b9c7" vector-effect="non-scaling-stroke"/> <path d="m384.39 252.64c-26.68 8.79-45.92 30.2-68.84 35.28-0.41 0.09-0.69 0.32-0.86 0.69l-1.45 3.2c-0.26 0.58-1.06 0.62-1.39 0.07-1.8-3.01 0.47-17.1-4.55-16.89" stroke="#435774" vector-effect="non-scaling-stroke"/> <path d="m307.79 249.79-0.49 25.2" stroke="#b2b9c7" vector-effect="non-scaling-stroke"/> <path d="m307.3 274.99c0.06 33.57 2.51 67.14 7.36 100.73" stroke="#8f9cac" vector-effect="non-scaling-stroke"/> <path d="m1073.2 238.3c-0.29-0.79-0.59-1.59-0.92-2.4-6.49-16.01-11.85-32.38-16.06-49.13-0.15-0.59-0.38-1.06-0.71-1.41-0.26-0.28-0.72-0.07-0.69 0.31 2.8 36.67 4.22 73.45 4.25 110.33 0 1.12-0.1 1.96-0.29 2.51" stroke="#99a9c1" vector-effect="non-scaling-stroke"/> <path d="m1058.8 298.51c-0.61 0.03-1.19-0.07-1.74-0.28-19.04-7.53-37.57-16.12-55.6-25.77-11.99-6.42-23.75-10.8-36.08-15.31" stroke="#7a89a3" vector-effect="non-scaling-stroke"/> <path d="m965.33 257.15 44.56-121.27c0.14-0.36-0.01-0.77-0.35-0.97-0.67-0.38-1.24-0.16-1.69 0.66-3.64 6.62-8.28 12.42-13.93 17.41" stroke="#c6cedb" vector-effect="non-scaling-stroke"/> <path d="m1056.1 374.39c-6.09-3.99-10.77-6.73-14.04-8.22-27.18-12.39-45.74-22.36-68.49-34.01-7.84-4.02-15.76-6.4-23.75-7.15-0.37-0.04-0.61-0.24-0.71-0.6-0.47-1.77-1.14-2.78-2.01-3.01" stroke="#435774" vector-effect="non-scaling-stroke"/> <path d="m965.33 257.15-18.22 64.25" stroke="#b2b9c7" vector-effect="non-scaling-stroke"/> <path d="m947.11 321.4c-4.51 17.54-7.11 35.23-7.82 53.08" stroke="#8f9cac" vector-effect="non-scaling-stroke"/> <path d="m1097.5 447.5c-0.63 0.43-1.12 0.42-1.46-0.01-2.85-3.65-6.46-5.56-10.82-5.73-0.34-0.01-0.67-0.13-0.94-0.34-9.87-7.83-21.1-13.08-33.69-15.77" stroke="#99a9c1" vector-effect="non-scaling-stroke"/> <path d="m1050.6 425.65 5.52-51.26" stroke="#627692" vector-effect="non-scaling-stroke"/> <path d="m1056.1 374.39 2.64-75.88" stroke="#8594ad" vector-effect="non-scaling-stroke"/> <path d="m1050.6 425.65c-3.27 20.05-5.45 33.19-6.54 39.41-4.57 26.08-11.46 52.24-20.68 78.49" stroke="#576c88" vector-effect="non-scaling-stroke"/> <path d="m796.83 375.3c-1.6 0.74-3.35 0.35-4.65 0.42-27.38 1.34-54.51 4.6-81.39 9.79-35.99 6.94-71.59 22.99-100.2 44.35-13.27 9.9-26.42 22.48-39.43 37.74" stroke="#476796" vector-effect="non-scaling-stroke"/> <path d="m571.16 467.6c-4.49 0.46-8.69-0.04-13.12 0.63-16.08 2.44-34.62-4.49-49.22-11.48" stroke="#6a85b1" vector-effect="non-scaling-stroke"/> <path d="m508.82 456.75 19.79-30.96" stroke="#3f5883" vector-effect="non-scaling-stroke"/> <path d="m528.61 425.79c3.15-4.29 6.18-8.78 9.46-12.82 11.07-13.66 21.82-27.82 34.09-40.45 7.96-8.19 16-16.5 24.12-24.91" stroke="#476796" vector-effect="non-scaling-stroke"/> <path d="m596.28 347.61c38-34.24 80.09-61.92 129.14-77.68 0.26-0.09 0.41-0.35 0.35-0.61-0.08-0.34-0.25-0.52-0.52-0.53-7.27-0.31-14.53-0.3-21.79 0.04-0.27 0.01-0.5-0.08-0.7-0.25-0.11-0.11-0.24-0.19-0.39-0.25-0.39-0.16-6.17 0.58-8.12 0.66-50.13 1.99-101.14 5.51-146.41 29.48-3.17 1.68-6.38 4.23-9.75 6.15-0.51 0.29-0.7 0.68-0.58 1.15 0.07 0.27-0.03 0.43-0.31 0.46-1.46 0.15-2.79 0.64-4 1.47-16.22 11.15-30.53 24.61-42.92 40.36" stroke="#6a85b1" vector-effect="non-scaling-stroke"/> <path d="m490.28 348.06c-11.59 14.51-21.11 30.48-28.55 47.9" stroke="#476796" vector-effect="non-scaling-stroke"/> <path d="m461.73 395.96-6.98 7.63c-0.24 0.25-0.53 0.35-0.87 0.3l-21-3.44c-0.37-0.06-0.73-0.17-1.07-0.33l-0.99-0.46" stroke="#6a85b1" vector-effect="non-scaling-stroke"/> <path d="m498 627.83c-0.65-1.03-1.25-1.63-1.8-1.8-0.31-0.1-0.64 0.1-0.7 0.42-1.67 9.33-3.33 24.29-6.95 26.47-0.25 0.15-0.57 0.05-0.7-0.21l-1.24-2.49c-0.21-0.43-0.69-0.66-1.16-0.57-11.28 2.3-22.62 2.67-34.03 1.12-0.63-0.08-1.15-0.54-1.3-1.16l-1.37-5.39c-0.08-0.33-0.1-0.67-0.05-1l6-44.46" stroke="#435774" vector-effect="non-scaling-stroke"/> <path d="m596.28 347.61c-8.54-2.6-17.12-3.45-25.74-2.55-0.33 0.03-0.63 0.15-0.9 0.34-1.04 0.75-2.32 1.14-3.83 1.17-30.38 0.77-55.56 1.26-75.53 1.49" stroke="#435774" vector-effect="non-scaling-stroke"/> <path d="m508.82 456.75c-25.77 44.23-43.81 91.57-54.12 142.01" stroke="#3c4761" vector-effect="non-scaling-stroke"/> <path d="m454.7 598.76c-0.42-0.02-0.72-0.21-0.91-0.57-2.69-5.21-4.58-10.94-5.68-17.17-2.39-13.58-5.53-26.57-6.91-40.59-0.61-6.17-1.32-12.37-2.15-18.58" stroke="#192a46" vector-effect="non-scaling-stroke"/> <path d="m447.39 438.63c-6.79 27.55-9.57 55.29-8.34 83.22" stroke="#3c4761" vector-effect="non-scaling-stroke"/> <path d="m439.05 521.85c-4.4 0.74-4.23-2.28-4.56-5.51-1.12-10.82-2.19-21.65-3.22-32.49-0.73-7.72-10.04-9.92-16.31-9.58-0.33 0.02-0.65-0.05-0.94-0.21-7.18-3.91-14.33-5.18-21.93-7.71-3.42-1.14-9.22-3.24-12.73-1.39-3.43 1.81-6.9 3.6-10.43 5.37-0.32 0.16-0.49 0.42-0.51 0.78-0.11 2.05-1.38 3.62-3.81 4.73" stroke="#435774" vector-effect="non-scaling-stroke"/> <path d="m364.61 475.84c-9.5-11.17-20.28-21.04-32.33-29.61-0.14-0.31-0.34-0.47-0.61-0.48-0.3-0.01-0.42 0.13-0.35 0.42l0.09 0.34" stroke="#b2b9c7" vector-effect="non-scaling-stroke"/> <path d="m331.41 446.51c-0.19 0-0.4 0.1-0.63 0.29-0.15 0.12-0.27 0.3-0.38 0.54-3.92 8.7-12.69 4.64-19.4 3.27-0.31-0.06-0.58-0.21-0.79-0.46-3.55-4.09-7.95-6.67-13.19-7.74" stroke="#435774" vector-effect="non-scaling-stroke"/> <path d="m528.61 425.79c0.36-5.32-3.74-5.36-7.77-4.58-5.09 0.99-10.2 1.84-15.33 2.54-8.91 1.22-19.48 0.83-29.22 1.62-7.57 0.61-15.23-0.12-22.78 0.6-0.36 0.03-0.69 0.24-0.87 0.55-2.32 3.95-0.68 9.28-5.25 12.11" stroke="#192a46" vector-effect="non-scaling-stroke"/> <path d="m447.39 438.63 14.34-42.67" stroke="#435774" vector-effect="non-scaling-stroke"/> <path d="m1112.9 1155.8c0.11-0.05 0.2-0.08 0.28-0.1 0.16-0.05 0.28-0.16 0.35-0.31 8.42-17.72 14.42-36.17 18-55.35" stroke="#576c88" vector-effect="non-scaling-stroke"/> <path d="m1131.6 1100.1c9.78-54.19 5.2-107.82-13.75-160.89-14.26-39.96-37.62-72.13-70.09-96.52" stroke="#798fab" vector-effect="non-scaling-stroke"/> <path d="m1047.7 842.67-24.87-15.48c-1.04-0.65-0.81-2.22 0.36-2.55 0.65-0.19 1.53-0.33 2.62-0.43 36.83-3.22 76.1-9.57 108.3-29.06 1.19-0.72 0.73-2.55-0.66-2.62-30.36-1.5-58.79-7.15-86.11-20.64-13.34-6.59-29.2-16.63-42.17-23.83-40.26-22.39-83.62-36.5-130.05-37.74" stroke="#8f9cac" vector-effect="non-scaling-stroke"/> <path d="m875.14 710.32c-0.85-0.15-1.1-0.14-0.75 0.02" stroke="#576c88" vector-effect="non-scaling-stroke"/> <path d="m874.39 710.34c1.33-33.21-9.52-64.31-32.84-87.66-9.55-9.57-19.07-19.09-28.56-28.56-0.27-0.27-0.73-0.21-0.92 0.12-5.8 9.98-12.33 20.76-20.52 28.2-19.86 18.04-45.21 21.97-70.89 23.26-5.46 0.28-11.76 0-17.68 0.17-3.47 0.1-9.25-0.41-13.92 0.43-6.83 1.22-13.44 3.21-19.81 5.97-0.54 0.23-0.53 0.44 0.03 0.62l0.54 0.17c0.14 0.04 0.2 0.21 0.11 0.33l-0.19 0.25c-0.09 0.13-0.22 0.19-0.39 0.16-2.07-0.34-4 0.01-5.77 1.05-22.52 13.25-40.45 31.12-53.8 53.6-6.16 10.39-12.11 20.9-17.84 31.55-0.16 0.3-0.37 0.55-0.64 0.76" stroke="#192a46" vector-effect="non-scaling-stroke"/> <path d="m591.3 740.76c0.01-0.17-0.23-0.28-0.7-0.35" stroke="#627692" vector-effect="non-scaling-stroke"/> <path d="m590.6 740.41 14.44-35.68" stroke="#798fab" vector-effect="non-scaling-stroke"/> <path d="m605.04 704.73c8.26-17.39 18.17-33.3 29.73-47.71 12.67-15.79 26.83-28.13 35.45-47.07 3.97-8.72 8.27-21.68 12.98-30.94 14.18-27.87 34.15-50.86 59.9-68.95 0.28-0.2 0.17-0.64-0.17-0.69-45.92-6-88.36 3.08-127.33 27.25-0.25 0.15-0.54-0.12-0.4-0.38 17.54-31.84 38.59-61.15 63.15-87.92 0.5-0.55-0.03-1.41-0.74-1.21-79.12 21.99-142.06 74.13-171.89 151.64" stroke="#8f9cac" vector-effect="non-scaling-stroke"/> <path d="m505.72 598.75c-1.39-0.17-1.94-0.75-1.65-1.73 6.03-20.33 14.11-41.15 24.23-62.46 11.21-23.62 25.99-45.73 42.86-66.96" stroke="#435774" vector-effect="non-scaling-stroke"/> <path d="m494.17 669.73-0.96 47.5" stroke="#627692" vector-effect="non-scaling-stroke"/> <path d="m141.24 1040.9c36.88-42.88 80.65-78.64 123.45-115.2" stroke="#798fab" vector-effect="non-scaling-stroke"/> <path d="m264.69 925.72c-0.57 1.45-0.74 2.59-0.49 3.43 0.26 0.91 0.75 1.06 1.48 0.45 75.53-64.19 155.19-125.28 174.25-229.91 0.23-1.29 0.09-2.35-0.44-3.18-0.21-0.32-0.69-0.32-0.89 0.01-3.45 5.62-7.32-1.48-11.47 2.8-0.66 0.68-1.78 0.56-2.29-0.23-1.31-2.03-2.45-5.43-5.1-5.8-4.81-0.68-8.74 0.69-11.77 4.12-0.62 0.7-1.76 0.46-2.04-0.44l-0.99-3.26c-0.22-0.73-1.29-0.61-1.34 0.15-0.41 6.03-2.46 11.23-6.17 15.59" stroke="#192a46" vector-effect="non-scaling-stroke"/> <path d="m397.43 709.45 7.76-35.49" stroke="#627692" vector-effect="non-scaling-stroke"/> <path d="m605.04 704.73c-5.25-4.43-10.58-8.52-15.99-12.27-11.62-8.07-24.93-17.95-38.42-22.12-1.24-0.38-2.49 0.57-2.45 1.87 0.45 14.33-0.73 28.39-3.55 42.19" stroke="#e8f1fe" vector-effect="non-scaling-stroke"/> <path d="m544.63 714.4c-2.06 8.73-4.14 17.36-6.23 25.89-0.21 0.85-0.75 1.33-1.62 1.46-0.48 0.08-0.97-0.09-1.31-0.45-19.11-20.17-32.52-43.64-40.21-70.42-0.07-0.25-0.23-0.44-0.47-0.56-0.25-0.11-0.45-0.31-0.62-0.59" stroke="#d1d9e5" vector-effect="non-scaling-stroke"/> <path d="m494.17 669.73c-0.25-14.17 1.03-28.13 3.83-41.9" stroke="#8f9cac" vector-effect="non-scaling-stroke"/> <path d="m498 627.83 7.72-29.08" stroke="#b2b9c7" vector-effect="non-scaling-stroke"/> <path d="m364.61 475.84c18.81 23.07 32.53 48.76 41.16 77.07 11.93 39.14 10.64 81.95-0.58 121.05" stroke="#8f9cac" vector-effect="non-scaling-stroke"/> <path d="m405.19 673.96c-0.65 1.14-1.27 1.87-1.79 3.08-10.16 23.6-23.27 45.37-39.34 65.32-0.72 0.88-2.14 0.5-2.31-0.63-1.8-12.03-2.48-24.29-2.05-36.78 0.12-3.47-1.48-5.71-4.19-7.41-0.51-0.32-1.14-0.4-1.72-0.2-7.49 2.63-14.35 6.42-20.58 11.36-0.25 0.2-0.57 0.32-0.89 0.33l-6.38 0.21" stroke="#d1d9e5" vector-effect="non-scaling-stroke"/> <path d="m331.41 446.51c9.49 23.43 15.17 47.76 17.04 72.99 0.07 0.85 0.01 1.55-0.17 2.11-0.25 0.78-1.26 0.98-1.79 0.35-2.81-3.34-5.71-6.5-8.71-9.49-16.74-16.66-39.44-23.26-62.57-21.75-0.43 0.03-0.52 0.22-0.29 0.57 12.49 19.23 19.76 40.29 21.81 63.2 1.03 11.63 1.36 19.86 0.97 24.69-1.28 15.69 2.73 29.99 7.94 45.4 5.02 14.86 11.63 34.56 15.07 52.09 1.26 6.43 2.48 12.89 3.66 19.38" stroke="#8f9cac" vector-effect="non-scaling-stroke"/> <path d="m875.14 710.32c-2.19 23.23-7.34 45.71-15.47 67.44" stroke="#c6cedb" vector-effect="non-scaling-stroke"/> <path d="m798.06 783.16c14.89-19.85 24.87-43.59 29.46-68.01" stroke="#c6cedb" vector-effect="non-scaling-stroke"/> <path d="m544.63 714.4 42.53 28.81c0.27 0.18 0.62 0.2 0.91 0.04 1.23-0.71 2.08-1.66 2.53-2.84" stroke="#bbcce4" vector-effect="non-scaling-stroke"/> <path d="m568.86 818.57c-1.42 1.73-1.35 3.09 0.21 4.08 49.86 31.79 115.94 53.24 170.38 17.8 23.18-15.09 42.72-34.19 58.61-57.29" stroke="#d1d9e5" vector-effect="non-scaling-stroke"/> <path d="m798.06 783.16-0.2 6.07c-0.01 0.12 0.01 0.24 0.06 0.36 0.65 1.57 1.76 2.13 3.34 1.66 13.4-3.96 25.92-9.1 40.75-8.11 0.38 0.03 0.75-0.08 1.05-0.29 3.69-2.62 7.6-3 11.73-1.14 0.35 0.16 0.76 0.04 0.98-0.27 1.12-1.61 2.42-2.84 3.9-3.68" stroke="#99a9c1" vector-effect="non-scaling-stroke"/> <path d="m859.67 777.76c-26.86 69.07-80.71 133.2-161.1 134.97-5.13 0.11-11.8-0.13-19.99-0.74-16.84-1.26-35.23-2.51-51.1-6.96-14.31-4-30.64-13.67-38.5-26.88-12.42-20.91-21.04-42.24-30.77-66.8-0.13-0.34-0.38-0.56-0.73-0.66-0.67-0.19-1.34-0.36-2.02-0.49-10.58-2.07-20.96-4.88-31.13-8.43-16.3-5.7-28.33-16.21-26.05-35.2 0.15-1.24-0.48-2.58-1.89-2.24" stroke="#d1d9e5" vector-effect="non-scaling-stroke"/> <path d="m1052.1 1127.2c-11.29-1.75-19.4-2.28-30.08 2.1-4.76 1.96-9.44 5.45-14.68 6.77-9.05 2.28-17.64 2.15-26.32 6.96-0.29 0.16-0.62 0.24-0.95 0.22-6.26-0.35-10.72-0.76-16.16 2.99-2.27 1.56-4.23 3.26-6.96 3.94-30.66 7.64-60.49 17.87-90.41 27.93-0.39 0.13-0.69 0.31-0.92 0.54-0.37 0.38-0.54 0.7-0.52 0.96 0.12 1.3-0.89 2.41-2.19 2.42-5.01 0.01-9.93 0.49-14.74 1.44-6.31 1.25-12.57 4.43-20.2 4.69-0.33 0.01-0.65 0.12-0.9 0.33-2.42 1.97-4.21 3.26-7.43 3.88-10.01 1.9-19.65 4.73-29.52 7.29-11.69 3.04-22.43 7.59-33.56 11.8-0.65 0.25-1.16 0.77-1.39 1.43-9.45 26.67-18.95 53.38-28.51 80.13-0.96 2.68-0.95 5.55-4.64 5.52-7.29-0.06-13.07 3.1-19.47 5.58-3.75 1.46-10.6 1.1-12.88 4.54-16.98 25.69-33.98 51.36-50.99 77.03-1.73 2.6-5.21 2.51-8.33 1.64-6.55-1.82-9.71 0.49-14.56 4.55-0.25 0.21-0.57 0.31-0.9 0.29l-17.27-1.25" stroke="#99a9c1" vector-effect="non-scaling-stroke"/> <path d="m597.66 1390.9c23.8-35.52 51.26-68.54 77.53-102.22 22.77-29.19 52.22-73.69 41.17-112.74-1.5-5.3-4.59-11.5-6.57-17.37" stroke="#7a89a3" vector-effect="non-scaling-stroke"/> <path d="m1047.7 842.67c-4.73 6.37 6.43 8.04 8.18 11.83 0.13 0.29 0.14 0.59 0.02 0.89-2.87 6.87-9.26 7.37-15.32 8.99-5.17 1.38-10.79 3.73-16.35 5.27-4.97 1.38-10.71 1.03-16.08 3.04-5.03 1.88-10.84 6.64-15.71 8.82-2.98 1.33-6.68 2.11-11.1 2.34-3.55 0.18-6.46 2.6-9.36 2.93-5.01 0.58-10.03 1.15-15.05 1.7-2.32 0.26-4.73 1.61-7.36 1.81-0.32 0.02-0.63-0.09-0.86-0.31-3.89-3.63-7.36-2.44-11.52-0.24-0.29 0.16-0.63 0.2-0.95 0.14-5.56-1.09-10.52-1.46-16.16 0.4-6.09 2.01-12.3 3.57-18.63 4.66-3.87 0.67-6.69 3.13-10.73 3.78-11.23 1.82-21.94 4.61-32.14 8.37-5.39 1.99-11.59 3.41-17.3 4.41-8.29 1.45-16.47 3.4-24.54 5.84-0.31 0.09-0.64 0.11-0.96 0.04-1.93-0.41-3.8-0.31-5.59 0.28-2.51 0.83-4.38 4.02-7.21 4.34-6.68 0.78-12.86 1.45-19.52 3.36-7.17 2.05-14.39 3.94-21.65 5.68-10.47 2.51-20.37 7.11-31.21 7.84-11.55 0.78-23.03 1.87-34.6 2.42-5.92 0.29-11.83 2.22-18.09 2.43-1.41 0.04-2.78 0.37-4.09 0.98-6.19 2.85-12.77 4.2-19.72 4.06-0.34-0.01-0.64 0.1-0.89 0.33-3.65 3.18-7.6 5.91-11.85 8.2-3.97 2.14-5.84 4.32-5.89 8.75-0.01 0.4-0.31 0.73-0.71 0.78l-2.94 0.31c-0.77 0.09-1.43 0.57-1.75 1.28-2.23 5.01-4.44 9.86-6.61 14.54-1.22 2.62-4.25 2.91-5.77 5.14-1.34 1.97-1.61 4.14-0.8 6.5 0.42 1.24-1.13 2.2-2.04 1.26-1.62-1.67-3.45-1.93-5.49-0.78-8.9 5.01-18.28 11.05-28.14 13.89-16.56 4.77-32.88 10.22-48.97 16.37-17.76 6.79-34.95 12.65-52.53 18.65-8.99 3.07-18.21 5.24-27.67 6.5-0.37 0.05-0.6 0.25-0.69 0.62-0.32 1.36-0.87 2.22-1.64 2.58-15.63 7.26-33.36 12.57-50.85 17.89-4.15 1.26-7.62 3.38-11.39 5.49-0.28 0.16-0.6 0.22-0.92 0.19-7.91-0.79-18.48 0.02-24.95 5.47-2.41 2.04-2.04 4.26-5.59 5.47-13.47 4.55-26.95 9.1-40.44 13.63-3.04 1.02-4.5 3.1-6.29 5.51-0.51 0.69-1.56 0.62-1.98-0.13l-1.69-3.02c-0.46-0.84-1.72-0.64-1.9 0.3-1.29 6.73 2.85 10.08 5.19 14.58 3.06 5.88-1.16 14.94-5.03 19.67-0.45 0.55-1.33 0.36-1.51-0.33l-0.36-1.36" stroke="#e8f1fe" vector-effect="non-scaling-stroke"/> <path d="m874.39 710.34c-16 0.15-31.62 1.75-46.87 4.81" stroke="#505c75" vector-effect="non-scaling-stroke"/> <path d="m827.52 715.15c-26.99 5.23-52.13 14.95-75.43 29.16-0.29 0.18-0.5 0.42-0.64 0.73-18.06 39.17-43.35 72.92-89.3 76.98" stroke="#888c98" vector-effect="non-scaling-stroke"/> <path d="m662.15 822.02-24.86-1.42" stroke="#5a677f" vector-effect="non-scaling-stroke"/> <path d="m637.29 820.6c-2.22-1.15-4.25-1.22-6.1-0.21" stroke="#3c4761" vector-effect="non-scaling-stroke"/> <path d="m631.19 820.39c-16.13-2.81-32.36-3.19-48.69-1.14-3.07 0.39-7.61 0.16-13.64-0.68" stroke="#888c98" vector-effect="non-scaling-stroke"/> <path d="m568.86 818.57c-1.48-0.82-1.91-1.9-1.28-3.25 2.85-6.11 4.52-10.07 4.99-11.87 5.55-21.11 11.79-42.01 18.73-62.69" stroke="#5a677f" vector-effect="non-scaling-stroke"/> <path d="m1131.6 1100.1c-3.76-1.37-5.63-3.55-7.12-7.48-24.22-64.07-64.49-123.21-126.54-155.29-32.63-16.87-67.53-25.8-104.69-26.79-1.14-0.03-2.06 0.49-2.2 1.65-0.08 0.65 0.3 1.28 0.91 1.52 41.48 16.3 78 43.67 102.73 81.07 23.84 36.06 37.54 79.81 36.58 123.69-0.01 0.32-0.13 0.58-0.38 0.78-1.43 1.19-2.76 0.99-3.99-0.6-39.79-51.7-89.61-87.61-155.48-96.02-45.17-5.77-95.16 3.52-137.77 20.33-16.69 6.59-32.63 15-46.18 26.95-0.37 0.32-0.29 0.92 0.15 1.13 19.13 9.34 33.89 21.86 40.76 42.92 0.22 0.68-0.25 1.39-0.97 1.45-43.36 3.4-77.69 26.67-108.49 57.37-45.54 45.41-92.09 92.3-151.68 119.2-55.75 25.17-115.68 29.42-175.96 19.31-42.66-7.15-84.75-19.45-126.26-36.9" stroke="#b0c1da" vector-effect="non-scaling-stroke"/> <path d="m264.69 925.72c50.64-43.71 94.33-91.98 117.26-156.23" stroke="#727f98" vector-effect="non-scaling-stroke"/> <path d="m397.43 709.45-15.48 60.04" stroke="#5a677f" vector-effect="non-scaling-stroke"/> <path d="m381.95 769.49c-2.9 1.33-5.63 2.88-8.18 4.67-3.91 2.75-6.43 4.4-7.56 4.96-6.49 3.22-13.68 4.93-20.95 6.84" stroke="#bbcce4" vector-effect="non-scaling-stroke"/> <path d="m345.26 785.96c-3.77 0.36-7.66 2.6-11.67 6.73" stroke="#d1d9e5" vector-effect="non-scaling-stroke"/> <path d="m123.88 1040.9c67-71.59 138.66-138.29 209.24-206.26 10-9.63 22.79-22.78 27.84-35.67 1.02-2.63-0.71-4.75-3.09-6.03-3.99-2.15-8.2-4.47-12.61-6.96" stroke="#e8f1fe" vector-effect="non-scaling-stroke"/> <path d="m631.19 820.39c0.03 0.6 1.17 0.82 3.43 0.66" stroke="#b2b9c7" vector-effect="non-scaling-stroke"/> <path d="m634.62 821.05c9.3 3.07 18.48 3.39 27.53 0.97" stroke="#d1d9e5" vector-effect="non-scaling-stroke"/> <path d="m431.37 1355.7c2.31-4 5.53-6.89 9.68-8.68 9.11-3.92 19.41-7.99 26.41-13.59 1.95-1.57 2.1-3.41 0.45-5.52" stroke="#7a89a3" vector-effect="non-scaling-stroke"/> <path d="m929.1 1335.1-0.45-0.29c-0.29-0.18-0.42-0.44-0.37-0.78 0.65-4.79 1.46-9.54 2.45-14.27 8.21-39.36 3.68-79.14-10.93-117.1-1.27-3.31-2.18-5.67-2.72-7.09-0.14-0.37-0.67-0.31-0.73 0.08-7.09 49.47-18.07 98.2-39.46 143.57" stroke="#99a9c1" vector-effect="non-scaling-stroke"/> <path d="m876.89 1339.2c-2.14-1.99-4.59-3.24-7.34-3.74-0.33-0.06-0.64-0.03-0.95 0.1-13.57 5.69-29.03 10.62-40.11 14.55-8.81 3.11-17.48 5.46-26.34 8.12" stroke="#bbcce4" vector-effect="non-scaling-stroke"/> <path d="m802.15 1358.3-2.13-52.26c-0.03-0.61-0.56-1.07-1.17-1-0.13 0.01-0.29 0.2-0.5 0.57-22.71 39.93-50.41 76.01-83.12 108.26-0.23 0.23-0.66 0.37-0.97 0.4" stroke="#99a9c1" vector-effect="non-scaling-stroke"/> <path d="m714.26 1414.2c0.21-0.94-0.15-1.69-1.07-2.25-0.23-0.14-0.23-0.46 0-0.6 0.79-0.49 1.1-1.16 0.92-2.03-0.08-0.41-0.55-0.61-0.91-0.38l-3.88 2.51c-0.23 0.15-0.51 0.18-0.76 0.09-3.53-1.22-6.64-1.42-9.33-0.61-6.48 1.95-11.99 2.92-16.53 2.91-3.28 0-5.06 0.13-6.46 3.46-3.43 8.12-6.93 16.22-10.52 24.31-0.13 0.29-0.37 0.52-0.67 0.64-9.65 3.64-20.23 3.49-30.09 6.44-15.42 4.6-27.54 11.59-43.59 13.53-0.33 0.04-0.63 0.24-0.79 0.53-10.63 18.79-15.92 39.04-15.86 60.74" stroke="#bbcce4" vector-effect="non-scaling-stroke"/> <path d="m574.72 1523.5c-6.31 5.51-13.29 10.55-20.94 15.11" stroke="#99a9c1" vector-effect="non-scaling-stroke"/> <path d="m551.6 1539.1c-0.43-0.18-0.54-0.82-0.33-1.93 0.17-0.84 0.26-1.47 0.28-1.89 3.05-52.15 18.42-100.27 46.11-144.35" stroke="#8594ad" vector-effect="non-scaling-stroke"/> <path d="m637.29 820.6c-0.87-0.27-1.76-0.12-2.67 0.45" stroke="#8594ad" vector-effect="non-scaling-stroke"/> <path d="m188.3 930.27 33.17-31.13" stroke="#b2b9c7" vector-effect="non-scaling-stroke"/> <path d="m221.47 899.14c18.72-15.07 36.67-31.11 53.85-48.14" stroke="#c6cedb" vector-effect="non-scaling-stroke"/> <path d="m314.25 1361.8c-0.85-4.4-4.19-8.2-8.92-8.61-43.4-3.75-85.4-13.5-126.01-29.27-1.05-0.41-1.96-1.09-2.73-2.05" stroke="#99a9c1" vector-effect="non-scaling-stroke"/> <path d="m574.72 1523.5c50.98-30.64 97.58-66.08 139.13-108.3 0.23-0.23 0.37-0.7 0.41-0.99" stroke="#b0c1da" vector-effect="non-scaling-stroke"/> <path d="m802.15 1358.3c-0.45 29.95-4.75 59.32-12.92 88.12-0.09 0.3 0.28 0.53 0.52 0.33 36.13-29.99 65.18-65.81 87.14-107.48" stroke="#b0c1da" vector-effect="non-scaling-stroke"/> <path d="m331.44 794.99c0.24 2.03-0.09 3.53-0.98 4.48-15.15 16.2-31.35 31.25-48.62 45.16-2.27 1.83-4.23 4.33-6.52 6.37" stroke="#d1d9e5" vector-effect="non-scaling-stroke"/> <path d="m275.32 851c-0.45-0.44-1.15-0.28-2.09 0.49-17.77 14.49-32.06 26.86-42.86 37.13-1.68 1.6-3.73 2.4-6.16 2.39-0.31 0-0.56-0.28-0.52-0.59 0.19-1.69-0.37-2.59-1.69-2.69-17.03-1.28-34.08-2.46-51.15-3.55-1.4-0.09-2.71-0.5-3.94-1.24-8.85-5.36-17.07-9.94-27.34-11.34-0.38-0.05-0.68-0.23-0.91-0.54l-0.66-0.92c-0.18-0.24-0.49-0.35-0.78-0.25-2.11 0.69-4 0.29-5.67-1.2" stroke="#99a9c1" vector-effect="non-scaling-stroke"/> <path d="m221.47 899.14c-12.52 8.65-23.78 18.78-33.79 30.37" stroke="#7a89a3" vector-effect="non-scaling-stroke"/> <path d="m175.08 1321.7c-2.02-0.17-3.02 0.44-3 1.83 0.01 0.41 0.19 0.79 0.5 1.05 39 32.4 92.42 37.17 141.67 37.26" stroke="#8594ad" vector-effect="non-scaling-stroke"/> <path d="m314.25 1361.8c34.28 0.28 65.1 0.1 97.68-8.93 0.32-0.09 0.62-0.04 0.89 0.16l8.75 6.36" stroke="#7a89a3" vector-effect="non-scaling-stroke"/> <path d="m323.93 794.54c-13.68 12.77-37.13 27.21-55.68 17.95-19.96-9.97-33.18-32.29-38.4-53.28" stroke="#d1d9e5" vector-effect="non-scaling-stroke"/> <path d="m229.85 759.21c-2.42-9.27-3.81-18.7-4.16-28.27-0.56-15.18-11.61-13.99-21.75-8.76-0.27 0.14-0.4 0.36-0.38 0.67l3.39 40.29" stroke="#e8f1fe" vector-effect="non-scaling-stroke"/> <path d="m206.95 763.14c1.35 7.72 2.83 15.11 4.63 22.74 5.45 23.08 16.85 42.46 34.2 58.15 0.5 0.45 0.38 1.26-0.22 1.55-9.24 4.4-16.72 5.91-27.69 5.95-19.98 0.09-37.98-1.55-56.39 8.23-0.46 0.24-1.02-0.06-1.08-0.58-2.83-25.59-1.01-50.86 5.45-75.8 1.57-6.08 4.23-13.53 6.21-20.3 0.14-0.47-0.35-0.89-0.8-0.67l-50.2 24.21" stroke="#d1d9e5" vector-effect="non-scaling-stroke"/> <path d="m229.85 759.21-9.95 0.03c-0.32 0-0.61 0.1-0.87 0.3-3.24 2.47-7.27 3.67-12.08 3.6" stroke="#bbcce4" vector-effect="non-scaling-stroke"/> <path d="m280.66 643.65c5.59 16.59 9.46 31.37 11.59 44.35 0.2 1.21-0.28 1.83-1.45 1.85" stroke="#476796" vector-effect="non-scaling-stroke"/> <path d="m291.03 701.66-0.51 17.73" stroke="#476796" vector-effect="non-scaling-stroke"/> <path d="m290.52 719.39c-4.29 0.11-8.59 0.86-12.9 2.25" stroke="#a0bde8" vector-effect="non-scaling-stroke"/> <path d="m277.62 721.64c0.25-1.21-0.04-2.43-0.88-3.67" stroke="#476796" vector-effect="non-scaling-stroke"/> <path d="m319.68 741.84c-13.65 0.22-24.43-9.98-29.16-22.45" stroke="#798fab" vector-effect="non-scaling-stroke"/> <path d="m277.62 721.64c1.8 22.67 19.57 37.88 42.74 34.34" stroke="#798fab" vector-effect="non-scaling-stroke"/> <path d="m289.72 763.32c3.26-0.37 8.33-3.41 3.73-6.51-12.39-8.35-20.4-19.81-24.05-34.38" stroke="#476796" vector-effect="non-scaling-stroke"/> <path d="m118.22 1049.2c-4.59 12.18-10.65 22.46-18.16 30.85-4.31 4.82-7.24 8.35-8.77 10.6" stroke="#6a85b1" vector-effect="non-scaling-stroke"/> <path d="m242.5 1077.2c-12.04 6.97-23.69 14.31-34.94 22.03-5.73 3.94-11.23 6.52-17.57 5.91-2.76-0.27-4.6-0.38-5.53-0.34" stroke="#6a85b1" vector-effect="non-scaling-stroke"/> <path d="m170.74 1101.7-6.53-1.48" stroke="#476796" vector-effect="non-scaling-stroke"/> <path d="m67.94 1209.8c-2.09-0.24-3.44 0.45-4.05 2.08" stroke="#bbcce4" vector-effect="non-scaling-stroke"/> <path d="m63.89 1211.9c-1.33-3.77-3.33-6.86-6.02-9.29" stroke="#99a9c1" vector-effect="non-scaling-stroke"/> <path d="m63.89 1211.9c1.13 7.07 2.49 12.02 4.09 14.85 3.45 6.13 6.83 13.2 10.54 18.38 5.19 7.25 11.44 13.58 18.73 18.97" stroke="#b0c1da" vector-effect="non-scaling-stroke"/> <path d="m97.25 1264.1c13.15 11.26 33.1 20.34 50.15 13.52 3.05-1.22 2.14-7.31 2.08-11.5-0.01-0.31 0.08-0.62 0.24-0.89l1.62-2.63" stroke="#99a9c1" vector-effect="non-scaling-stroke"/> <path d="m87.34 1228.9c1.76 4.56 3.26 9.14 6.24 13.21 3.94 5.39 8.3 15.74 3.67 21.98" stroke="#bbcce4" vector-effect="non-scaling-stroke"/> </g> <path d="m-1515.6 76.127-0.23 0.13c-0.13 0.07-0.17 0.18-0.13 0.32l30.8 108.31c-3.43 4.83-7.61 8.39-12.54 10.7-0.33 0.15-0.44 0.4-0.33 0.75 0.21 0.71 0.1 1.19-0.32 1.44-17.77 10.92-34.65 21.75-54.67 28.38l3.64-113.41c0.01-0.35-0.14-0.61-0.46-0.77-0.37-0.18-0.85-0.21-1.44-0.09-0.02-0.09-0.06-0.17-0.11-0.24-0.07-0.08-0.1-0.17-0.09-0.28l3.41-34.96 7.83-28.87c0.1-0.35 0.34-0.64 0.67-0.79 3.49-1.63 6.38-0.73 8.69 2.7 6.36 9.44 11.45 18.33 15.28 26.68z" fill="#8e9eb7"/> <path d="m-787.69 214.67c-0.29-0.79-0.59-1.59-0.92-2.4-6.49-16.01-11.85-32.38-16.06-49.13-0.15-0.59-0.38-1.06-0.71-1.41-0.26-0.28-0.72-0.07-0.69 0.31 2.8 36.67 4.22 73.45 4.25 110.33 0 1.12-0.1 1.96-0.29 2.51-0.61 0.03-1.19-0.07-1.74-0.28-19.04-7.53-37.57-16.12-55.6-25.77-11.99-6.42-23.75-10.8-36.08-15.31l44.56-121.27c0.14-0.36-0.01-0.77-0.35-0.97-0.67-0.38-1.24-0.16-1.69 0.66-3.64 6.62-8.28 12.42-13.93 17.41 7.21-17.39 16.08-37.49 27.77-53.32 4.38-5.92 10.02-13.23 15.64-3.22 2.21 3.94 3.9 8.1 5.08 12.47 9.7 36.09 19.1 72.26 28.2 108.51 1.93 7.68 2.79 14.64 2.56 20.88z" fill="#8e9eb7"/> <path d="m-1515.6 76.127c28.52 51.14 51.32 104.7 68.4 160.67 4.98 16.32 9.58 31.95 10.9 46.82 2.6 29.4-21.16 52.54-46.93 61.69-0.33 0.12-0.64-0.21-0.51-0.54 13.24-33 15.47-69.49 8.45-104.3l-1.13-11.46-8.74-44.12-30.8-108.31c-0.04-0.14 0-0.25 0.13-0.32z" fill="#fefefe"/> <path d="m-1548.1 76.407-3.41 34.96c-0.01 0.11 0.02 0.2 0.09 0.28 0.05 0.07 0.09 0.15 0.11 0.24-0.09 0.18-0.2 0.36-0.33 0.54-0.11 0.17-0.19 0.36-0.22 0.57-2.25 14.33-5.4 28.45-9.44 42.38-0.29 1.01-0.71 2.02-1.25 3.01 0.05-5.37 0.39-10.02 1.04-13.95 4.95-29.91 8.72-51.63 11.31-65.14 0.24-1.24 0.94-2.2 2.1-2.89z" fill="#66748f"/> <path d="m-1368.4 274.31c-22.8-11.94-37.77-30.79-48-54.02-19.75-44.84-39.6-89.53-63.02-132.6-1.26-2.31-2.8-4.49-4.24-6.79-0.35-0.57 0.35-1.21 0.88-0.8 1.8 1.36 2.52 3.87 3.56 5.4 11.81 17.3 24.44 34.3 35.52 52.05 27.51 44.06 52.94 89.29 76.3 135.7 0.15 0.29 0.15 0.56 0 0.79-0.21 0.34-0.65 0.46-1 0.27z" fill="#6d95d3"/> <path d="m-1303.8 236.81c0.37 0.23 0.3 0.79-0.12 0.91-21 6.25-37.94 18.13-55.54 30.68-0.47 0.33-1.11 0.2-1.41-0.29-26.22-42.92-52.34-85.78-78.37-128.57-11.03-18.14-22.64-36.04-34.82-53.7-0.51-0.74 0.23-1.7 1.07-1.39 0.41 0.15 0.84 0.5 1.3 1.04 48.83 57.69 103.45 110.87 167.89 151.32z" fill="#203959"/> <path d="m-888.85 109.53c0.08-0.18 0.23-0.31 0.45-0.4 0.16-0.06 0.31 0.09 0.26 0.25-2.21 6.68-5.11 13.04-8.69 19.08-32.82 55.37-62.52 106.24-106.73 149.45-15.95 15.59-34.5 27.28-55.63 35.06-0.16 0.06-0.34-0.01-0.42-0.15-0.08-0.15-0.04-0.34 0.09-0.44 2.52-1.93 5.36-3.5 7.55-5.73 60.26-61.19 112.71-125.98 162.88-196.61 0.03-0.05 0.11-0.22 0.24-0.51z" fill="#6d95d3"/> <path d="m-895.53 233.52-18.22 64.25c-4.51 17.54-7.11 35.23-7.82 53.08-3.29 33.54 1.77 65.56 15.19 96.06 0.19 0.43-0.29 0.85-0.7 0.61-38.09-22.11-64.14-54.08-78.15-95.91-3.4-10.17 17.56-50 22.83-59.79 29.25-54.37 61.07-108.53 95.46-162.47 5.65-4.99 10.29-10.79 13.93-17.41 0.45-0.82 1.02-1.04 1.69-0.66 0.34 0.2 0.49 0.61 0.35 0.97z" fill="#fefefe"/> <path d="m-1551.3 111.89c0.59-0.12 1.07-0.09 1.44 0.09 0.32 0.16 0.47 0.42 0.46 0.77l-3.64 113.41-0.49 25.2c0.06 33.57 2.51 67.14 7.36 100.73-7.75 10.39-16.74 19.7-26.99 27.94-0.51 0.41-0.95 0.67-1.33 0.76-0.43 0.1-0.67-0.07-0.74-0.5-3.31-22.25-4.67-44.31-4.08-66.17 1.43-52.39 7.02-104.3 16.77-155.73 0.54-0.99 0.96-2 1.25-3.01 4.04-13.93 7.19-28.05 9.44-42.38 0.03-0.21 0.11-0.4 0.22-0.57 0.13-0.18 0.24-0.36 0.33-0.54z" fill="#fefefe"/> <path d="m-787.69 214.67c16.96 68.64 25.07 138.37 24.33 209.2-0.63 0.43-1.12 0.42-1.46-0.01-2.85-3.65-6.46-5.56-10.82-5.73-0.34-0.01-0.67-0.13-0.94-0.34-9.87-7.83-21.1-13.08-33.69-15.77l5.52-51.26 2.64-75.88c0.19-0.55 0.29-1.39 0.29-2.51-0.03-36.88-1.45-73.66-4.25-110.33-0.03-0.38 0.43-0.59 0.69-0.31 0.33 0.35 0.56 0.82 0.71 1.41 4.21 16.75 9.57 33.12 16.06 49.13 0.33 0.81 0.63 1.61 0.92 2.4z" fill="#a3b3cb"/> <path d="m-1485.2 184.89 8.74 44.12c-26.68 8.79-45.92 30.2-68.84 35.28-0.41 0.09-0.69 0.32-0.86 0.69l-1.45 3.2c-0.26 0.58-1.06 0.62-1.39 0.07-1.8-3.01 0.47-17.1-4.55-16.89l0.49-25.2c20.02-6.63 36.9-17.46 54.67-28.38 0.42-0.25 0.53-0.73 0.32-1.44-0.11-0.35 0-0.6 0.33-0.75 4.93-2.31 9.11-5.87 12.54-10.7z" fill="#66748f"/> <path d="m-1064 351.67c-1.6 0.74-3.35 0.35-4.65 0.42-27.38 1.34-54.51 4.6-81.39 9.79-35.99 6.94-71.59 22.99-100.2 44.35-13.27 9.9-26.42 22.48-39.43 37.74-4.49 0.46-8.69-0.04-13.12 0.63-16.08 2.44-34.62-4.49-49.22-11.48l19.79-30.96c3.15-4.29 6.18-8.78 9.46-12.82 11.07-13.66 21.82-27.82 34.09-40.45 7.96-8.19 16-16.5 24.12-24.91 38-34.24 80.09-61.92 129.14-77.68 0.26-0.09 0.41-0.35 0.35-0.61-0.08-0.34-0.25-0.52-0.52-0.53-7.27-0.31-14.53-0.3-21.79 0.04-0.27 0.01-0.5-0.08-0.7-0.25-0.11-0.11-0.24-0.19-0.39-0.25-0.39-0.16-6.17 0.58-8.12 0.66-50.13 1.99-101.14 5.51-146.41 29.48-3.17 1.68-6.38 4.23-9.75 6.15-0.51 0.29-0.7 0.68-0.58 1.15 0.07 0.27-0.03 0.43-0.31 0.46-1.46 0.15-2.79 0.64-4 1.47-16.22 11.15-30.53 24.61-42.92 40.36-11.59 14.51-21.11 30.48-28.55 47.9l-6.98 7.63c-0.24 0.25-0.53 0.35-0.87 0.3l-21-3.44c-0.37-0.06-0.73-0.17-1.07-0.33l-0.99-0.46c18.15-48.03 48.4-86.07 90.75-114.11 57.3-37.94 134.23-36.8 199.67-34.87 35.7 1.05 71.29 4.88 106.78 11.49 0.51 0.09 0.66 0.76 0.23 1.06-22.75 15.73-46.79 45.29-41.07 75.13 2.39 12.48 5.61 24.79 9.65 36.94z" fill="#6d95d3"/> <path d="m-1476.5 229.01 1.13 11.46c-10.37 25.78-23.36 49.68-38.96 71.7-9.73 13.73-20.31 27.7-31.9 39.92-4.85-33.59-7.3-67.16-7.36-100.73 5.02-0.21 2.75 13.88 4.55 16.89 0.33 0.55 1.13 0.51 1.39-0.07l1.45-3.2c0.17-0.37 0.45-0.6 0.86-0.69 22.92-5.08 42.16-26.49 68.84-35.28z" fill="#203959"/> <path d="m-895.53 233.52c12.33 4.51 24.09 8.89 36.08 15.31 18.03 9.65 36.56 18.24 55.6 25.77 0.55 0.21 1.13 0.31 1.74 0.28l-2.64 75.88c-6.09-3.99-10.77-6.73-14.04-8.22-27.18-12.39-45.74-22.36-68.49-34.01-7.84-4.02-15.76-6.4-23.75-7.15-0.37-0.04-0.61-0.24-0.71-0.6-0.47-1.77-1.14-2.78-2.01-3.01z" fill="#66748f"/> <path d="m-1264.6 323.98c-8.54-2.6-17.12-3.45-25.74-2.55-0.33 0.03-0.63 0.15-0.9 0.34-1.04 0.75-2.32 1.14-3.83 1.17-30.38 0.77-55.56 1.26-75.53 1.49 12.39-15.75 26.7-29.21 42.92-40.36 1.21-0.83 2.54-1.32 4-1.47 0.28-0.03 0.38-0.19 0.31-0.46-0.12-0.47 0.07-0.86 0.58-1.15 3.37-1.92 6.58-4.47 9.75-6.15 45.27-23.97 96.28-27.49 146.41-29.48 1.95-0.08 7.73-0.82 8.12-0.66 0.15 0.06 0.28 0.14 0.39 0.25 0.2 0.17 0.43 0.26 0.7 0.25 7.26-0.34 14.52-0.35 21.79-0.04 0.27 0.01 0.44 0.19 0.52 0.53 0.06 0.26-0.09 0.52-0.35 0.61-49.05 15.76-91.14 43.44-129.14 77.68z" fill="#66748f"/> <path d="m-913.75 297.77c0.87 0.23 1.54 1.24 2.01 3.01 0.1 0.36 0.34 0.56 0.71 0.6 7.99 0.75 15.91 3.13 23.75 7.15 22.75 11.65 41.31 21.62 68.49 34.01 3.27 1.49 7.95 4.23 14.04 8.22l-5.52 51.26c-3.27 20.05-5.45 33.19-6.54 39.41-4.57 26.08-11.46 52.24-20.68 78.49-22.57-29.19-37.81-61.84-51.85-95.48-10.19-24.4-20.55-48.73-30.85-73.08-0.13-0.31-0.36-0.48-0.69-0.49l-0.69-0.02c0.71-17.85 3.31-35.54 7.82-53.08z" fill="#203959"/> <path d="m-1264.6 323.98c-8.12 8.41-16.16 16.72-24.12 24.91-12.27 12.63-23.02 26.79-34.09 40.45-3.28 4.04-6.31 8.53-9.46 12.82 0.36-5.32-3.74-5.36-7.77-4.58-5.09 0.99-10.2 1.84-15.33 2.54-8.91 1.22-19.48 0.83-29.22 1.62-7.57 0.61-15.23-0.12-22.78 0.6-0.36 0.03-0.69 0.24-0.87 0.55-2.32 3.95-0.68 9.28-5.25 12.11l14.34-42.67c7.44-17.42 16.96-33.39 28.55-47.9 19.97-0.23 45.15-0.72 75.53-1.49 1.51-0.03 2.79-0.42 3.83-1.17 0.27-0.19 0.57-0.31 0.9-0.34 8.62-0.9 17.2-0.05 25.74 2.55z" fill="#203959"/> <path d="m-1430 376.03 0.99 0.46c0.34 0.16 0.7 0.27 1.07 0.33l21 3.44c0.34 0.05 0.63-0.05 0.87-0.3l6.98-7.63-14.34 42.67c-6.79 27.55-9.57 55.29-8.34 83.22-4.4 0.74-4.23-2.28-4.56-5.51-1.12-10.82-2.19-21.65-3.22-32.49-0.73-7.72-10.04-9.92-16.31-9.58-0.33 0.02-0.65-0.05-0.94-0.21-7.18-3.91-14.33-5.18-21.93-7.71-3.42-1.14-9.22-3.24-12.73-1.39-3.43 1.81-6.9 3.6-10.43 5.37-0.32 0.16-0.49 0.42-0.51 0.78-0.11 2.05-1.38 3.62-3.81 4.73-9.5-11.17-20.28-21.04-32.33-29.61-0.14-0.31-0.34-0.47-0.61-0.48-0.3-0.01-0.42 0.13-0.35 0.42l0.09 0.34c-0.19 0-0.4 0.1-0.63 0.29-0.15 0.12-0.27 0.3-0.38 0.54-3.92 8.7-12.69 4.64-19.4 3.27-0.31-0.06-0.58-0.21-0.79-0.46-3.55-4.09-7.95-6.67-13.19-7.74 21.7-25.11 43.46-50.24 65.27-75.37 0.44-0.51 0.87-0.81 1.3-0.9 0.48-0.1 0.93 0.26 0.95 0.75 1.12 39.55 18 61.39 56.08 72.37 0.58 0.17 1.18-0.18 1.32-0.77z" fill="#66748f"/> <path d="m-1064 351.67c38.25 29.98 75.29 61.79 111.1 95.44 0.43 0.4-0.01 1.09-0.56 0.88-19.98-7.88-40.63-13.95-61.95-18.22-0.87-0.17-1.5-0.22-1.9-0.13-0.91 0.2-1.01 0.59-0.28 1.18 16.12 13.07 32.22 26.05 48.66 38.65 29.68 22.74 58.63 46.37 86.86 70.89 0.73 0.63 1.22 1.13 1.49 1.48 0.84 1.13 0.43 2.74-0.85 3.33-24.78 11.25-47.1 26.21-66.95 44.9-1.25 1.17-2.12 2.31-2.6 3.42-0.39 0.9-0.1 1.41 0.88 1.54 87.6 11.38 160.2 59.54 215.18 127.94 31.27 38.91 57.64 81.13 79.11 126.66 0.21 0.44-0.28 0.89-0.71 0.65-32.24-17.9-67.19-28.07-103.56-33.66-7.89-1.21-15.86-2.37-23.92-3.48-0.5-0.07-0.73 0.59-0.3 0.85 63.54 38.02 102.53 100.66 114.84 173.11 0.06 0.35 0.18 0.86 0.37 1.53 0.2 0.75 0.25 1.27 0.14 1.57-0.57 1.51-1.48 1.75-2.72 0.72-11.39-9.37-23.72-17.16-36.99-23.37-0.29-0.13-0.55-0.2-0.78-0.19-0.36 0.01-0.59 0.37-0.45 0.7 19.24 43.99 25.39 94.46 10.85 140.07-7.55 23.7-18.66 45.48-33.32 65.33-0.31 0.41-0.95 0.32-1.12-0.17l-14.42-41.08c0.11-0.05 0.2-0.08 0.28-0.1 0.16-0.05 0.28-0.16 0.35-0.31 8.42-17.72 14.42-36.17 18-55.35 9.78-54.19 5.2-107.82-13.75-160.89-14.26-39.96-37.62-72.13-70.09-96.52l-24.87-15.48c-1.04-0.65-0.81-2.22 0.36-2.55 0.65-0.19 1.53-0.33 2.62-0.43 36.83-3.22 76.1-9.57 108.3-29.06 1.19-0.72 0.73-2.55-0.66-2.62-30.36-1.5-58.79-7.15-86.11-20.64-13.34-6.59-29.2-16.63-42.17-23.83-40.26-22.39-83.62-36.5-130.05-37.74-0.85-0.15-1.1-0.14-0.75 0.02 1.33-33.21-9.52-64.31-32.84-87.66-9.55-9.57-19.07-19.09-28.56-28.56-0.27-0.27-0.73-0.21-0.92 0.12-5.8 9.98-12.33 20.76-20.52 28.2-19.86 18.04-45.21 21.97-70.89 23.26-5.46 0.28-11.76 0-17.68 0.17-3.47 0.1-9.25-0.41-13.92 0.43-6.83 1.22-13.44 3.21-19.81 5.97-0.54 0.23-0.53 0.44 0.03 0.62l0.54 0.17c0.14 0.04 0.2 0.21 0.11 0.33l-0.19 0.25c-0.09 0.13-0.22 0.19-0.39 0.16-2.07-0.34-4 0.01-5.77 1.05-22.52 13.25-40.45 31.12-53.8 53.6-6.16 10.39-12.11 20.9-17.84 31.55-0.16 0.3-0.37 0.55-0.64 0.76 0.01-0.17-0.23-0.28-0.7-0.35l14.44-35.68c8.26-17.39 18.17-33.3 29.73-47.71 12.67-15.79 26.83-28.13 35.45-47.07 3.97-8.72 8.27-21.68 12.98-30.94 14.18-27.87 34.15-50.86 59.9-68.95 0.28-0.2 0.17-0.64-0.17-0.69-45.92-6-88.36 3.08-127.33 27.25-0.25 0.15-0.54-0.12-0.4-0.38 17.54-31.84 38.59-61.15 63.15-87.92 0.5-0.55-0.03-1.41-0.74-1.21-79.12 21.99-142.06 74.13-171.89 151.64-1.39-0.17-1.94-0.75-1.65-1.73 6.03-20.33 14.11-41.15 24.23-62.46 11.21-23.62 25.99-45.73 42.86-66.96 13.01-15.26 26.16-27.84 39.43-37.74 28.61-21.36 64.21-37.41 100.2-44.35 26.88-5.19 54.01-8.45 81.39-9.79 1.3-0.07 3.05 0.32 4.65-0.42z" fill="#203959"/> <path d="m-1332.2 402.16-19.79 30.96c-25.77 44.23-43.81 91.57-54.12 142.01-0.42-0.02-0.72-0.21-0.91-0.57-2.69-5.21-4.58-10.94-5.68-17.17-2.39-13.58-5.53-26.57-6.91-40.59-0.61-6.17-1.32-12.37-2.15-18.58-1.23-27.93 1.55-55.67 8.34-83.22 4.57-2.83 2.93-8.16 5.25-12.11 0.18-0.31 0.51-0.52 0.87-0.55 7.55-0.72 15.21 0.01 22.78-0.6 9.74-0.79 20.31-0.4 29.22-1.62 5.13-0.7 10.24-1.55 15.33-2.54 4.03-0.78 8.13-0.74 7.77 4.58z" fill="#111a32"/> <path d="m-810.27 402.02c12.59 2.69 23.82 7.94 33.69 15.77 0.27 0.21 0.6 0.33 0.94 0.34 4.36 0.17 7.97 2.08 10.82 5.73 0.34 0.43 0.83 0.44 1.46 0.01-0.68 17.27-1.61 34.51-2.78 51.74-1.64 24.09-7.14 53.02-25.11 70.39-0.23 0.23-0.53 0.37-0.85 0.4-9.76 1.05-18.96-2.77-26.6-8.43-7.32-5.41-13.58-11.42-18.79-18.05 9.22-26.25 16.11-52.41 20.68-78.49 1.09-6.22 3.27-19.36 6.54-39.41z" fill="#8e9eb7"/> <path d="m-1563.8 418.78c5.24 1.07 9.64 3.65 13.19 7.74 0.21 0.25 0.48 0.4 0.79 0.46 6.71 1.37 15.48 5.43 19.4-3.27 0.11-0.24 0.23-0.42 0.38-0.54 0.23-0.19 0.44-0.29 0.63-0.29 9.49 23.43 15.17 47.76 17.04 72.99 0.07 0.85 0.01 1.55-0.17 2.11-0.25 0.78-1.26 0.98-1.79 0.35-2.81-3.34-5.71-6.5-8.71-9.49-16.74-16.66-39.44-23.26-62.57-21.75-0.43 0.03-0.52 0.22-0.29 0.57 12.49 19.23 19.76 40.29 21.81 63.2 1.03 11.63 1.36 19.86 0.97 24.69-1.28 15.69 2.73 29.99 7.94 45.4 5.02 14.86 11.63 34.56 15.07 52.09 1.26 6.43 2.48 12.89 3.66 19.38l-12.87-30.17c-0.14-0.32-0.38-0.57-0.69-0.72-0.51-0.25-0.72-0.62-0.61-1.11 0.07-0.33 0.03-0.64-0.11-0.95-7.27-15.76-17.94-28.49-32.01-38.19-16.93-11.66-31.4-19.84-31.76-43.33-0.01-0.62-0.44-1.66-0.74-2.14-0.22-0.35-0.73-0.36-0.97-0.02-6.15 9.09-12.35 18.04-18.61 26.85-1.74 2.44-4.85 2.22-6.14-0.09-0.3-0.55-0.62-0.56-0.97-0.04-19.59 29.28-37.49 59.56-53.72 90.83-0.16 0.32-0.23 0.68-0.18 1.03 0.04 0.29 0.03 0.57-0.03 0.85-0.04 0.2-0.24 0.33-0.44 0.3s-0.34-0.22-0.32-0.42c0.09-0.86 0.43-1.87 1.04-3.02 15.95-30.56 33.47-60.19 52.57-88.9 1.63-2.45 2.69-5.15 3.2-8.1 0.19-1.08-0.49-2.12-1.56-2.38l-5.2-1.31c-1.09-0.27-1.54-1.58-0.84-2.45l3.29-4.15c0.2-0.26 0.26-0.59 0.15-0.89-0.66-1.84-2.48-1.52-4.07-1.63-9.77-0.67-19.42-0.47-28.93 0.6-0.77 0.09-1.3-0.76-0.88-1.41 17.41-26.93 36.2-52.61 56.35-77.02 8.77-10.63 28.01-32.51 57.7-65.66z" fill="#203959"/> <path d="m-1496.2 452.21c18.81 23.07 32.53 48.76 41.16 77.07 11.93 39.14 10.64 81.95-0.58 121.05-0.65 1.14-1.27 1.87-1.79 3.08-10.16 23.6-23.27 45.37-39.34 65.32-0.72 0.88-2.14 0.5-2.31-0.63-1.8-12.03-2.48-24.29-2.05-36.78 0.12-3.47-1.48-5.71-4.19-7.41-0.51-0.32-1.14-0.4-1.72-0.2-7.49 2.63-14.35 6.42-20.58 11.36-0.25 0.2-0.57 0.32-0.89 0.33l-6.38 0.21-1.57-13.19c-1.18-6.49-2.4-12.95-3.66-19.38-3.44-17.53-10.05-37.23-15.07-52.09-5.21-15.41-9.22-29.71-7.94-45.4 0.39-4.83 0.06-13.06-0.97-24.69-2.05-22.91-9.32-43.97-21.81-63.2-0.23-0.35-0.14-0.54 0.29-0.57 23.13-1.51 45.83 5.09 62.57 21.75 3 2.99 5.9 6.15 8.71 9.49 0.53 0.63 1.54 0.43 1.79-0.35 0.18-0.56 0.24-1.26 0.17-2.11-1.87-25.23-7.55-49.56-17.04-72.99l-0.09-0.34c-0.07-0.29 0.05-0.43 0.35-0.42 0.27 0.01 0.47 0.17 0.61 0.48 12.05 8.57 22.83 18.44 32.33 29.61z" fill="#fefefe"/> <path d="m-1255.8 681.1c-5.25-4.43-10.58-8.52-15.99-12.27-11.62-8.07-24.93-17.95-38.42-22.12-1.24-0.38-2.49 0.57-2.45 1.87 0.45 14.33-0.73 28.39-3.55 42.19-2.06 8.73-4.14 17.36-6.23 25.89-0.21 0.85-0.75 1.33-1.62 1.46-0.48 0.08-0.97-0.09-1.31-0.45-19.11-20.17-32.52-43.64-40.21-70.42-0.07-0.25-0.23-0.44-0.47-0.56-0.25-0.11-0.45-0.31-0.62-0.59-0.25-14.17 1.03-28.13 3.83-41.9l7.72-29.08c29.83-77.51 92.77-129.65 171.89-151.64 0.71-0.2 1.24 0.66 0.74 1.21-24.56 26.77-45.61 56.08-63.15 87.92-0.14 0.26 0.15 0.53 0.4 0.38 38.97-24.17 81.41-33.25 127.33-27.25 0.34 0.05 0.45 0.49 0.17 0.69-25.75 18.09-45.72 41.08-59.9 68.95-4.71 9.26-9.01 22.22-12.98 30.94-8.62 18.94-22.78 31.28-35.45 47.07-11.56 14.41-21.47 30.32-29.73 47.71z" fill="#fefefe"/> <path d="m-1352 433.12c14.6 6.99 33.14 13.92 49.22 11.48 4.43-0.67 8.63-0.17 13.12-0.63-16.87 21.23-31.65 43.34-42.86 66.96-10.12 21.31-18.2 42.13-24.23 62.46-0.29 0.98 0.26 1.56 1.65 1.73l-7.72 29.08c-0.65-1.03-1.25-1.63-1.8-1.8-0.31-0.1-0.64 0.1-0.7 0.42-1.67 9.33-3.33 24.29-6.95 26.47-0.25 0.15-0.57 0.05-0.7-0.21l-1.24-2.49c-0.21-0.43-0.69-0.66-1.16-0.57-11.28 2.3-22.62 2.67-34.03 1.12-0.63-0.08-1.15-0.54-1.3-1.16l-1.37-5.39c-0.08-0.33-0.1-0.67-0.05-1l6-44.46c10.31-50.44 28.35-97.78 54.12-142.01z" fill="#66748f"/> <path d="m-1421.8 498.22c0.83 6.21 1.54 12.41 2.15 18.58 1.38 14.02 4.52 27.01 6.91 40.59 1.1 6.23 2.99 11.96 5.68 17.17 0.19 0.36 0.49 0.55 0.91 0.57l-6 44.46c-0.05 0.33-0.03 0.67 0.05 1l1.37 5.39c0.15 0.62 0.67 1.08 1.3 1.16 11.41 1.55 22.75 1.18 34.03-1.12 0.47-0.09 0.95 0.14 1.16 0.57l1.24 2.49c0.13 0.26 0.45 0.36 0.7 0.21 3.62-2.18 5.28-17.14 6.95-26.47 0.06-0.32 0.39-0.52 0.7-0.42 0.55 0.17 1.15 0.77 1.8 1.8-2.8 13.77-4.08 27.73-3.83 41.9l-0.96 47.5c-0.82-2.09-2.24-4.06-4.26-5.92-0.41-0.38-1.08-0.06-1.04 0.5 0.29 3.97 0.47 8.01 0.56 12.12 0.22 10.08 1.26 22.37-3.73 31.6-14.23 26.28-31.61 49.8-52.27 71.33-79.65 82.95-177.81 143.16-266.53 215.43-0.25 0.21-0.54 0.33-0.86 0.36-8.02 0.85-15.97 0.27-23.84-1.73 36.88-42.88 80.65-78.64 123.45-115.2-0.57 1.45-0.74 2.59-0.49 3.43 0.26 0.91 0.75 1.06 1.48 0.45 75.53-64.19 155.19-125.28 174.25-229.91 0.23-1.29 0.09-2.35-0.44-3.18-0.21-0.32-0.69-0.32-0.89 0.01-3.45 5.62-7.32-1.48-11.47 2.8-0.66 0.68-1.78 0.56-2.29-0.23-1.31-2.03-2.45-5.43-5.1-5.8-4.81-0.68-8.74 0.69-11.77 4.12-0.62 0.7-1.76 0.46-2.04-0.44l-0.99-3.26c-0.22-0.73-1.29-0.61-1.34 0.15-0.41 6.03-2.46 11.23-6.17 15.59l7.76-35.49c11.22-39.1 12.51-81.91 0.58-121.05-8.63-28.31-22.35-54-41.16-77.07 2.43-1.11 3.7-2.68 3.81-4.73 0.02-0.36 0.19-0.62 0.51-0.78 3.53-1.77 7-3.56 10.43-5.37 3.51-1.85 9.31 0.25 12.73 1.39 7.6 2.53 14.75 3.8 21.93 7.71 0.29 0.16 0.61 0.23 0.94 0.21 6.27-0.34 15.58 1.86 16.31 9.58 1.03 10.84 2.1 21.67 3.22 32.49 0.33 3.23 0.16 6.25 4.56 5.51z" fill="#203959"/> <path d="m-694.29 668.3c-0.39-0.2-0.53-0.69-0.31-1.07 2.49-4.33 3.62-9.16 1.3-13.93-10.59-21.75-24.25-41.02-40.98-57.82-0.89-0.89-0.88-2.32 0.02-3.19 3.79-3.69 7.09-7.18 9.83-11.75 11.75-19.59 17.36-40.97 16.82-64.14-0.01-0.4 0.19-0.78 0.52-1.02 2.56-1.8 3.52-4.29 2.89-7.48-0.07-0.36 0.19-0.71 0.56-0.73 2.83-0.16 4.37 0.73 5.3 3.54 0.73 2.2 2.1 4 2.12 6.36 0.58 54.44 6.07 107.01 22.5 158.25 0.33 1.03 0.53 2.01 0.59 2.94 0.03 0.52-0.52 0.87-0.98 0.63z" fill="#203959"/> <path d="m-986.47 686.71c-16 0.15-31.62 1.75-46.87 4.81-26.99 5.23-52.13 14.95-75.43 29.16-0.29 0.18-0.5 0.42-0.64 0.73-18.06 39.17-43.35 72.92-89.3 76.98l-24.86-1.42c-2.22-1.15-4.25-1.22-6.1-0.21-16.13-2.81-32.36-3.19-48.69-1.14-3.07 0.39-7.61 0.16-13.64-0.68-1.48-0.82-1.91-1.9-1.28-3.25 2.85-6.11 4.52-10.07 4.99-11.87 5.55-21.11 11.79-42.01 18.73-62.69 0.27-0.21 0.48-0.46 0.64-0.76 5.73-10.65 11.68-21.16 17.84-31.55 13.35-22.48 31.28-40.35 53.8-53.6 1.77-1.04 3.7-1.39 5.77-1.05 0.17 0.03 0.3-0.03 0.39-0.16l0.19-0.25c0.09-0.12 0.03-0.29-0.11-0.33l-0.54-0.17c-0.56-0.18-0.57-0.39-0.03-0.62 6.37-2.76 12.98-4.75 19.81-5.97 4.67-0.84 10.45-0.33 13.92-0.43 5.92-0.17 12.22 0.11 17.68-0.17 25.68-1.29 51.03-5.22 70.89-23.26 8.19-7.44 14.72-18.22 20.52-28.2 0.19-0.33 0.65-0.39 0.92-0.12 9.49 9.47 19.01 18.99 28.56 28.56 23.32 23.35 34.17 54.45 32.84 87.66z" fill="#111a32"/> <g transform="translate(-1860.9 -23.633)" clip-path="url(#a)" fill="none"> <path d="m636.85 721.21c12.58-19.82 25.22-40.98 43.37-55.9" stroke="#476796" vector-effect="non-scaling-stroke"/> <path d="m703.81 748.5c-1.01-0.29-1.78-0.68-2.31-1.15-0.26-0.23-0.56-0.36-0.89-0.39l-21.44-2.24" stroke="#b6cae9" vector-effect="non-scaling-stroke"/> <path d="m679.17 744.72 2.52-17.05" stroke="#476796" vector-effect="non-scaling-stroke"/> <path d="m700.79 756.22-24.98-2.82" stroke="#e8f1fe" vector-effect="non-scaling-stroke"/> <path d="m679.17 744.72-3.36 8.68" stroke="#8f9cac" vector-effect="non-scaling-stroke"/> <path d="m675.81 753.4c-4.84 9.87-13.31 15.33-25.42 16.37" stroke="#798fab" vector-effect="non-scaling-stroke"/> <path d="m650.39 769.77c-7.43 0.06-14.74-1.14-21.93-3.61-4.95-1.7-9.16-0.86-11 4.32-0.13 0.35-0.06 0.66 0.19 0.93 5.45 5.93 11.88 10.26 19.29 13" stroke="#627692" vector-effect="non-scaling-stroke"/> <path d="m636.94 784.41c22.04 7.37 41.04 0.32 56-15.99" stroke="#798fab" vector-effect="non-scaling-stroke"/> <path d="m678.25 796.53c-1.55 0.93-2.21 1.88-1.99 2.85" stroke="#435774" vector-effect="non-scaling-stroke"/> <path d="m636.94 784.41c0.27-1.79 1.97-2.41 5.11-1.87 0.69 0.12 1.17-0.14 1.44-0.78 1.1-2.59 2.81-4.71 5.12-6.35 0.29-0.2 0.45-0.55 0.41-0.91-0.19-1.82 0.26-3.4 1.37-4.73" stroke="#bbcce4" vector-effect="non-scaling-stroke"/> </g> <path d="m-1580.2 620.02c5.59 16.59 9.46 31.37 11.59 44.35 0.2 1.21-0.28 1.83-1.45 1.85-10.05-3.09-20.15-6.03-30.3-8.82-12.84-3.53-28.69-11.07-33.84-23.52-1.29-3.11-2.08-7.37-2.38-12.76-0.53-9.73-0.28-19.58 0.77-29.55 0.08-0.75 0.93-1.15 1.56-0.74 0.65 0.42 1.28 1.03 1.9 1.84 14.24 18.38 36.74 11.31 52.15 27.35z" fill="#6d95d3"/> <path d="m-1580.2 620.02c9.72 6.86 16.53 15.81 20.42 26.86 0.14 0.38 0.41 0.63 0.8 0.74 0.94 0.26 1.21 1 0.8 2.21-0.1 0.3-0.09 0.62 0.01 0.92 1.89 5.51 4.64 12.71 8.26 21.62 1.39 3.44 1.52 7.06 0.39 10.86-0.11 0.37-0.32 0.44-0.64 0.22-5.5-3.84-10.99-7.65-16.48-11.42-2.29-1.58-2.58-3.31-3.42-5.81 1.17-0.02 1.65-0.64 1.45-1.85-2.13-12.98-6-27.76-11.59-44.35z" fill="#203959"/> <path d="m-1224 697.58c12.58-19.82 25.22-40.98 43.37-55.9 14.01-9.73 30.08-7.45 46.33-4.82 18.85 3.05 38.16 5.14 57.26 4.98 10.26-0.09 20.49-1.14 30.76-0.97 0.62 0.01 1 0.68 0.7 1.22-1.9 3.43-3.57 7.05-5.77 10.1-28.31 39.34-72.18 37.58-114.76 37.47-20.17-0.05-38.45 2.26-57.89 7.92z" fill="#6d95d3"/> <path d="m-1180.6 641.68c-18.15 14.92-30.79 36.08-43.37 55.9-6.6 2.51-12.82 6.14-18.67 10.9-1.18 0.96-2.86-0.32-2.24-1.71 1.76-3.93 3.64-8.01 5.64-12.24 0.43-0.91 0.33-2.48 1.58-3.33 0.28-0.19 0.51-0.43 0.68-0.72 12.88-21.65 30.57-39.03 53.71-49.44 0.31-0.14 0.61-0.12 0.9 0.06 0.61 0.38 1.2 0.57 1.77 0.58z" fill="#203959"/> <path d="m-1366.7 646.1c0.17 0.28 0.37 0.48 0.62 0.59 0.24 0.12 0.4 0.31 0.47 0.56 7.69 26.78 21.1 50.25 40.21 70.42 0.34 0.36 0.83 0.53 1.31 0.45 0.87-0.13 1.41-0.61 1.62-1.46 2.09-8.53 4.17-17.16 6.23-25.89l42.53 28.81c0.27 0.18 0.62 0.2 0.91 0.04 1.23-0.71 2.08-1.66 2.53-2.84 0.47 0.07 0.71 0.18 0.7 0.35-6.94 20.68-13.18 41.58-18.73 62.69-0.47 1.8-2.14 5.76-4.99 11.87-0.63 1.35-0.2 2.43 1.28 3.25-1.42 1.73-1.35 3.09 0.21 4.08 49.86 31.79 115.94 53.24 170.38 17.8 23.18-15.09 42.72-34.19 58.61-57.29l-0.2 6.07c-0.01 0.12 0.01 0.24 0.06 0.36 0.65 1.57 1.76 2.13 3.34 1.66 13.4-3.96 25.92-9.1 40.75-8.11 0.38 0.03 0.75-0.08 1.05-0.29 3.69-2.62 7.6-3 11.73-1.14 0.35 0.16 0.76 0.04 0.98-0.27 1.12-1.61 2.42-2.84 3.9-3.68-26.86 69.07-80.71 133.2-161.1 134.97-5.13 0.11-11.8-0.13-19.99-0.74-16.84-1.26-35.23-2.51-51.1-6.96-14.31-4-30.64-13.67-38.5-26.88-12.42-20.91-21.04-42.24-30.77-66.8-0.13-0.34-0.38-0.56-0.73-0.66-0.67-0.19-1.34-0.36-2.02-0.49-10.58-2.07-20.96-4.88-31.13-8.43-16.3-5.7-28.33-16.21-26.05-35.2 0.15-1.24-0.48-2.58-1.89-2.24l-3.18-47.1z" fill="#a3b3cb"/> <path d="m-1255.8 681.1-14.44 35.68c-0.45 1.18-1.3 2.13-2.53 2.84-0.29 0.16-0.64 0.14-0.91-0.04l-42.53-28.81c2.82-13.8 4-27.86 3.55-42.19-0.04-1.3 1.21-2.25 2.45-1.87 13.49 4.17 26.8 14.05 38.42 22.12 5.41 3.75 10.74 7.84 15.99 12.27z" fill="#d2e4fd"/> <path d="m-1455.7 650.33-7.76 35.49-15.48 60.04c-2.9 1.33-5.63 2.88-8.18 4.67-3.91 2.75-6.43 4.4-7.56 4.96-6.49 3.22-13.68 4.93-20.95 6.84-3.77 0.36-7.66 2.6-11.67 6.73l-7.65-83.45 6.38-0.21c0.32-0.01 0.64-0.13 0.89-0.33 6.23-4.94 13.09-8.73 20.58-11.36 0.58-0.2 1.21-0.12 1.72 0.2 2.71 1.7 4.31 3.94 4.19 7.41-0.43 12.49 0.25 24.75 2.05 36.78 0.17 1.13 1.59 1.51 2.31 0.63 16.07-19.95 29.18-41.72 39.34-65.32 0.52-1.21 1.14-1.94 1.79-3.08z" fill="#a3b3cb"/> <path d="m-1536.9 770.91c-13.68 12.77-37.13 27.21-55.68 17.95-19.96-9.97-33.18-32.29-38.4-53.28-2.42-9.27-3.81-18.7-4.16-28.27-0.56-15.18-11.61-13.99-21.75-8.76-0.27 0.14-0.4 0.36-0.38 0.67l3.39 40.29c1.35 7.72 2.83 15.11 4.63 22.74 5.45 23.08 16.85 42.46 34.2 58.15 0.5 0.45 0.38 1.26-0.22 1.55-9.24 4.4-16.72 5.91-27.69 5.95-19.98 0.09-37.98-1.55-56.39 8.23-0.46 0.24-1.02-0.06-1.08-0.58-2.83-25.59-1.01-50.86 5.45-75.8 1.57-6.08 4.23-13.53 6.21-20.3 0.14-0.47-0.35-0.89-0.8-0.67l-50.2 24.21c18.22-47.82 46.72-107.14 107.03-106.35 6.13 0.08 11.66 3.03 16.47 6.46 0.27 0.19 0.41 0.46 0.41 0.8 0.19 33.77 0.47 80.47 37.94 96.51 3.05 1.31 8.36 2.76 15.95 4.35 8.35 1.75 16.7 3.8 25.07 6.15z" fill="#fefefe"/> <path d="m-1596.2 902.09c50.64-43.71 94.33-91.98 117.26-156.23l15.48-60.04c3.71-4.36 5.76-9.56 6.17-15.59 0.05-0.76 1.12-0.88 1.34-0.15l0.99 3.26c0.28 0.9 1.42 1.14 2.04 0.44 3.03-3.43 6.96-4.8 11.77-4.12 2.65 0.37 3.79 3.77 5.1 5.8 0.51 0.79 1.63 0.91 2.29 0.23 4.15-4.28 8.02 2.82 11.47-2.8 0.2-0.33 0.68-0.33 0.89-0.01 0.53 0.83 0.67 1.89 0.44 3.18-19.06 104.63-98.72 165.72-174.25 229.91-0.73 0.61-1.22 0.46-1.48-0.45-0.25-0.84-0.08-1.98 0.49-3.43z" fill="#111a32"/> <path d="m-1569.8 678.03-0.51 17.73c-4.29 0.11-8.59 0.86-12.9 2.25 0.25-1.21-0.04-2.43-0.88-3.67l2.92-20.18c0.06-0.4 0.28-0.53 0.65-0.38z" fill="#6d95d3"/> <path d="m-1569.8 678.03c9.94 1.66 6.94 12.93 7.26 19.98 0.05 0.93 0.7 1.72 1.61 1.93 9.99 2.33 19.39 6.08 19.78 18.27-13.65 0.22-24.43-9.98-29.16-22.45z" fill="#203959"/> <path d="m-986.47 686.71c-0.35-0.16-0.1-0.17 0.75-0.02-2.19 23.23-7.34 45.71-15.47 67.44-1.48 0.84-2.78 2.07-3.9 3.68-0.22 0.31-0.63 0.43-0.98 0.27-4.13-1.86-8.04-1.48-11.73 1.14-0.3 0.21-0.67 0.32-1.05 0.29-14.83-0.99-27.35 4.15-40.75 8.11-1.58 0.47-2.69-0.09-3.34-1.66-0.05-0.12-0.07-0.24-0.06-0.36l0.2-6.07c14.89-19.85 24.87-43.59 29.46-68.01 15.25-3.06 30.87-4.66 46.87-4.81z" fill="#8e9eb7"/> <path d="m-985.72 686.69c46.43 1.24 89.79 15.35 130.05 37.74 12.97 7.2 28.83 17.24 42.17 23.83 27.32 13.49 55.75 19.14 86.11 20.64 1.39 0.07 1.85 1.9 0.66 2.62-32.2 19.49-71.47 25.84-108.3 29.06-1.09 0.1-1.97 0.24-2.62 0.43-1.17 0.33-1.4 1.9-0.36 2.55l24.87 15.48c-4.73 6.37 6.43 8.04 8.18 11.83 0.13 0.29 0.14 0.59 0.02 0.89-2.87 6.87-9.26 7.37-15.32 8.99-5.17 1.38-10.79 3.73-16.35 5.27-4.97 1.38-10.71 1.03-16.08 3.04-5.03 1.88-10.84 6.64-15.71 8.82-2.98 1.33-6.68 2.11-11.1 2.34-3.55 0.18-6.46 2.6-9.36 2.93-5.01 0.58-10.03 1.15-15.05 1.7-2.32 0.26-4.73 1.61-7.36 1.81-0.32 0.02-0.63-0.09-0.86-0.31-3.89-3.63-7.36-2.44-11.52-0.24-0.29 0.16-0.63 0.2-0.95 0.14-5.56-1.09-10.52-1.46-16.16 0.4-6.09 2.01-12.3 3.57-18.63 4.66-3.87 0.67-6.69 3.13-10.73 3.78-11.23 1.82-21.94 4.61-32.14 8.37-5.39 1.99-11.59 3.41-17.3 4.41-8.29 1.45-16.47 3.4-24.54 5.84-0.31 0.09-0.64 0.11-0.96 0.04-1.93-0.41-3.8-0.31-5.59 0.28-2.51 0.83-4.38 4.02-7.21 4.34-6.68 0.78-12.86 1.45-19.52 3.36-7.17 2.05-14.39 3.94-21.65 5.68-10.47 2.51-20.37 7.11-31.21 7.84-11.55 0.78-23.03 1.87-34.6 2.42-5.92 0.29-11.83 2.22-18.09 2.43-1.41 0.04-2.78 0.37-4.09 0.98-6.19 2.85-12.77 4.2-19.72 4.06-0.34-0.01-0.64 0.1-0.89 0.33-3.65 3.18-7.6 5.91-11.85 8.2-3.97 2.14-5.84 4.32-5.89 8.75-0.01 0.4-0.31 0.73-0.71 0.78l-2.94 0.31c-0.77 0.09-1.43 0.57-1.75 1.28-2.23 5.01-4.44 9.86-6.61 14.54-1.22 2.62-4.25 2.91-5.77 5.14-1.34 1.97-1.61 4.14-0.8 6.5 0.42 1.24-1.13 2.2-2.04 1.26-1.62-1.67-3.45-1.93-5.49-0.78-8.9 5.01-18.28 11.05-28.14 13.89-16.56 4.77-32.88 10.22-48.97 16.37-17.76 6.79-34.95 12.65-52.53 18.65-8.99 3.07-18.21 5.24-27.67 6.5-0.37 0.05-0.6 0.25-0.69 0.62-0.32 1.36-0.87 2.22-1.64 2.58-15.63 7.26-33.36 12.57-50.85 17.89-4.15 1.26-7.62 3.38-11.39 5.49-0.28 0.16-0.6 0.22-0.92 0.19-7.91-0.79-18.48 0.02-24.95 5.47-2.41 2.04-2.04 4.26-5.59 5.47-13.47 4.55-26.95 9.1-40.44 13.63-3.04 1.02-4.5 3.1-6.29 5.51-0.51 0.69-1.56 0.62-1.98-0.13l-1.69-3.02c-0.46-0.84-1.72-0.64-1.9 0.3-1.29 6.73 2.85 10.08 5.19 14.58 3.06 5.88-1.16 14.94-5.03 19.67-0.45 0.55-1.33 0.36-1.51-0.33l-0.36-1.36c2.41-8.75 0.91-16.86-4.51-24.34-17.15-23.68-50.21-41.86-77.51-53.13-0.54-0.22-0.7-0.9-0.32-1.34 23.99-27.58 51.12-48.75 83.37-71.93 8.57-6.15 29.69-20.93 63.36-44.34 59.41-41.31 119.06-102.67 129.97-177.64 1.41-0.34 2.04 1 1.89 2.24-2.28 18.99 9.75 29.5 26.05 35.2 10.17 3.55 20.55 6.36 31.13 8.43 0.68 0.13 1.35 0.3 2.02 0.49 0.35 0.1 0.6 0.32 0.73 0.66 9.73 24.56 18.35 45.89 30.77 66.8 7.86 13.21 24.19 22.88 38.5 26.88 15.87 4.45 34.26 5.7 51.1 6.96 8.19 0.61 14.86 0.85 19.99 0.74 80.39-1.77 134.24-65.9 161.1-134.97 8.13-21.73 13.28-44.21 15.47-67.44z" fill="#fefefe"/> <path d="m-1033.3 691.52c-4.59 24.42-14.57 48.16-29.46 68.01-15.89 23.1-35.43 42.2-58.61 57.29-54.44 35.44-120.52 13.99-170.38-17.8-1.56-0.99-1.63-2.35-0.21-4.08 6.03 0.84 10.57 1.07 13.64 0.68 16.33-2.05 32.56-1.67 48.69 1.14 0.03 0.6 1.17 0.82 3.43 0.66 9.3 3.07 18.48 3.39 27.53 0.97 45.95-4.06 71.24-37.81 89.3-76.98 0.14-0.31 0.35-0.55 0.64-0.73 23.3-14.21 48.44-23.93 75.43-29.16z" fill="#fefefe"/> <path d="m-1584.1 694.34c0.84 1.24 1.13 2.46 0.88 3.67 1.8 22.67 19.57 37.88 42.74 34.34 5.07 11.67-13.21 8.59-18.21 9.53-4.27 0.81-8.41 0.08-12.43-2.19 3.26-0.37 8.33-3.41 3.73-6.51-12.39-8.35-20.4-19.81-24.05-34.38l6.06-3.52c0.16-0.09 0.34-0.14 0.53-0.15 0.1-0.01 0.21-0.01 0.32-0.01 0.3-0.01 0.45-0.16 0.45-0.46 0.01-0.1 0-0.21-0.02-0.32z" fill="#203959"/> <path d="m-1631 735.58-9.95 0.03c-0.32 0-0.61 0.1-0.87 0.3-3.24 2.47-7.27 3.67-12.08 3.6l-3.39-40.29c-0.02-0.31 0.11-0.53 0.38-0.67 10.14-5.23 21.19-6.42 21.75 8.76 0.35 9.57 1.74 19 4.16 28.27z" fill="#d2e4fd"/> <path d="m-1570.3 695.76c4.73 12.47 15.51 22.67 29.16 22.45 1.39 4.61 1.62 9.33 0.68 14.14-23.17 3.54-40.94-11.67-42.74-34.34 4.31-1.39 8.61-2.14 12.9-2.25z" fill="#d2e4fd"/> <path d="m-1591.5 698.8c3.65 14.57 11.66 26.03 24.05 34.38 4.6 3.1-0.47 6.14-3.73 6.51-16.05-4.68-22.99-23.57-24.17-38.97-0.03-0.29 0.1-0.49 0.38-0.6z" fill="#6d95d3"/> <path d="m-1157 724.87c-1.01-0.29-1.78-0.68-2.31-1.15-0.26-0.23-0.56-0.36-0.89-0.39l-21.44-2.24 2.52-17.05 21.94-0.99c0.34-0.02 0.51 0.14 0.5 0.49z" fill="#6d95d3"/> <path d="m-1179.2 704.04-2.52 17.05-3.36 8.68c-4.84 9.87-13.31 15.33-25.42 16.37-7.43 0.06-14.74-1.14-21.93-3.61-4.95-1.7-9.16-0.86-11 4.32-0.13 0.35-0.06 0.66 0.19 0.93 5.45 5.93 11.88 10.26 19.29 13 22.04 7.37 41.04 0.32 56-15.99-0.94 9.41-10.9 6.99-12.1 15.04-0.48 3.2 2.77 6.48-2.26 8.33-0.9 0.33-1.45 0.63-1.65 0.89-0.89 1.16-0.29 3.81 1.32 3.85-1.55 0.93-2.21 1.88-1.99 2.85-24.39 5.52-48.92-6.56-65.43-23.74-7.6-7.9 5.78-20.23 11.57-24.38 0.46-0.33 1.07-0.34 1.54-0.03 4.62 2.99 9.69 7.16 14.64 8.37 14.27 3.49 24.42-8.21 23.42-21.86-0.16-2.15-0.34-4.26-0.53-6.35-0.03-0.32 0.19-0.6 0.51-0.65z" fill="#203959"/> <path d="m-1181.7 721.09 21.44 2.24c0.33 0.03 0.63 0.16 0.89 0.39 0.53 0.47 1.3 0.86 2.31 1.15l-3.02 7.72-24.98-2.82z" fill="#fefefe"/> <path d="m-1185 729.77 24.98 2.82-7.85 12.2c-14.96 16.31-33.96 23.36-56 15.99 0.27-1.79 1.97-2.41 5.11-1.87 0.69 0.12 1.17-0.14 1.44-0.78 1.1-2.59 2.81-4.71 5.12-6.35 0.29-0.2 0.45-0.55 0.41-0.91-0.19-1.82 0.26-3.4 1.37-4.73 12.11-1.04 20.58-6.5 25.42-16.37z" fill="#d2e4fd"/> <path d="m-1184.6 775.75c-0.22-0.97 0.44-1.92 1.99-2.85 17.66-7.99 29.79-21.09 36.38-39.28 0.13-0.33 0.36-0.45 0.71-0.36l11.14 2.91c0.33 0.08 0.42 0.27 0.29 0.58-6.25 14.51-15.49 26.72-27.74 36.64-4.94 3.99-15.05 3.21-22.77 2.36z" fill="#66748f"/> <path d="m-1631 735.58c5.22 20.99 18.44 43.31 38.4 53.28 18.55 9.26 42-5.18 55.68-17.95 2.63 2.05 5.13 2.2 7.51 0.45 0.24 2.03-0.09 3.53-0.98 4.48-15.15 16.2-31.35 31.25-48.62 45.16-2.27 1.83-4.23 4.33-6.52 6.37-0.45-0.44-1.15-0.28-2.09 0.49-17.77 14.49-32.06 26.86-42.86 37.13-1.68 1.6-3.73 2.4-6.16 2.39-0.31 0-0.56-0.28-0.52-0.59 0.19-1.69-0.37-2.59-1.69-2.69-17.03-1.28-34.08-2.46-51.15-3.55-1.4-0.09-2.71-0.5-3.94-1.24-8.85-5.36-17.07-9.94-27.34-11.34-0.38-0.05-0.68-0.23-0.91-0.54l-0.66-0.92c-0.18-0.24-0.49-0.35-0.78-0.25-2.11 0.69-4 0.29-5.67-1.2-1.42-19.63 1.18-38.71 7.79-57.22 0.66-1.84 0.28-3.25-1.85-3.44-7.57-0.7-15.09-1.46-22.56-2.28-0.58-0.07-0.95-0.66-0.74-1.2l6.87-17.93 50.2-24.21c0.45-0.22 0.94 0.2 0.8 0.67-1.98 6.77-4.64 14.22-6.21 20.3-6.46 24.94-8.28 50.21-5.45 75.8 0.06 0.52 0.62 0.82 1.08 0.58 18.41-9.78 36.41-8.14 56.39-8.23 10.97-0.04 18.45-1.55 27.69-5.95 0.6-0.29 0.72-1.1 0.22-1.55-17.35-15.69-28.75-35.07-34.2-58.15-1.8-7.63-3.28-15.02-4.63-22.74 4.81 0.07 8.84-1.13 12.08-3.6 0.26-0.2 0.55-0.3 0.87-0.3z" fill="#a3b3cb"/> <path d="m-1210.5 746.14c-1.11 1.33-1.56 2.91-1.37 4.73 0.04 0.36-0.12 0.71-0.41 0.91-2.31 1.64-4.02 3.76-5.12 6.35-0.27 0.64-0.75 0.9-1.44 0.78-3.14-0.54-4.84 0.08-5.11 1.87-7.41-2.74-13.84-7.07-19.29-13-0.25-0.27-0.32-0.58-0.19-0.93 1.84-5.18 6.05-6.02 11-4.32 7.19 2.47 14.5 3.67 21.93 3.61z" fill="#a3b3cb"/> <path d="m-1478.9 745.86c-22.93 64.25-66.62 112.52-117.26 156.23-42.8 36.56-86.57 72.32-123.45 115.2l-17.36-0.04c67-71.59 138.66-138.29 209.24-206.26 10-9.63 22.79-22.78 27.84-35.67 1.02-2.63-0.71-4.75-3.09-6.03-3.99-2.15-8.2-4.47-12.61-6.96 7.27-1.91 14.46-3.62 20.95-6.84 1.13-0.56 3.65-2.21 7.56-4.96 2.55-1.79 5.28-3.34 8.18-4.67z" fill="#d2e4fd"/> <path d="m-1515.6 762.33c4.41 2.49 8.62 4.81 12.61 6.96 2.38 1.28 4.11 3.4 3.09 6.03-5.05 12.89-17.84 26.04-27.84 35.67-70.58 67.97-142.24 134.67-209.24 206.26l-47.97 9.01c-0.65 0.13-0.87-0.12-0.65-0.75 0.03-0.09 0.2-0.3 0.49-0.65 35.37-41.46 72.88-80.87 112.55-118.22l33.17-31.13c18.72-15.07 36.67-31.11 53.85-48.14 2.29-2.04 4.25-4.54 6.52-6.37 17.27-13.91 33.47-28.96 48.62-45.16 0.89-0.95 1.22-2.45 0.98-4.48l2.15-2.3c4.01-4.13 7.9-6.37 11.67-6.73z" fill="#fefefe"/> <path d="m-1223.6 796.97c-0.87-0.27-1.76-0.12-2.67 0.45-2.26 0.16-3.4-0.06-3.43-0.66 1.85-1.01 3.88-0.94 6.1 0.21z" fill="#66748f"/> <path d="m-1223.6 796.97 24.86 1.42c-9.05 2.42-18.23 2.1-27.53-0.97 0.91-0.57 1.8-0.72 2.67-0.45z" fill="#a3b3cb"/> <path d="m-813.14 819.04c32.47 24.39 55.83 56.56 70.09 96.52 18.95 53.07 23.53 106.7 13.75 160.89-3.76-1.37-5.63-3.55-7.12-7.48-24.22-64.07-64.49-123.21-126.54-155.29-32.63-16.87-67.53-25.8-104.69-26.79-1.14-0.03-2.06 0.49-2.2 1.65-0.08 0.65 0.3 1.28 0.91 1.52 41.48 16.3 78 43.67 102.73 81.07 23.84 36.06 37.54 79.81 36.58 123.69-0.01 0.32-0.13 0.58-0.38 0.78-1.43 1.19-2.76 0.99-3.99-0.6-39.79-51.7-89.61-87.61-155.48-96.02-45.17-5.77-95.16 3.52-137.77 20.33-16.69 6.59-32.63 15-46.18 26.95-0.37 0.32-0.29 0.92 0.15 1.13 19.13 9.34 33.89 21.86 40.76 42.92 0.22 0.68-0.25 1.39-0.97 1.45-43.36 3.4-77.69 26.67-108.49 57.37-45.54 45.41-92.09 92.3-151.68 119.2-55.75 25.17-115.68 29.42-175.96 19.31-42.66-7.15-84.75-19.45-126.26-36.9-2.97-4.98-4.79-10.66-5.45-17.05-0.04-0.35 0.12-0.53 0.48-0.53 55.96-0.5 92.85-32.8 122.05-77.07 7.47-11.33 13.15-24.67 19.04-37.27 0.83-1.77 0.73-3.45 0.93-5.4l0.36 1.36c0.18 0.69 1.06 0.88 1.51 0.33 3.87-4.73 8.09-13.79 5.03-19.67-2.34-4.5-6.48-7.85-5.19-14.58 0.18-0.94 1.44-1.14 1.9-0.3l1.69 3.02c0.42 0.75 1.47 0.82 1.98 0.13 1.79-2.41 3.25-4.49 6.29-5.51 13.49-4.53 26.97-9.08 40.44-13.63 3.55-1.21 3.18-3.43 5.59-5.47 6.47-5.45 17.04-6.26 24.95-5.47 0.32 0.03 0.64-0.03 0.92-0.19 3.77-2.11 7.24-4.23 11.39-5.49 17.49-5.32 35.22-10.63 50.85-17.89 0.77-0.36 1.32-1.22 1.64-2.58 0.09-0.37 0.32-0.57 0.69-0.62 9.46-1.26 18.68-3.43 27.67-6.5 17.58-6 34.77-11.86 52.53-18.65 16.09-6.15 32.41-11.6 48.97-16.37 9.86-2.84 19.24-8.88 28.14-13.89 2.04-1.15 3.87-0.89 5.49 0.78 0.91 0.94 2.46-0.02 2.04-1.26-0.81-2.36-0.54-4.53 0.8-6.5 1.52-2.23 4.55-2.52 5.77-5.14 2.17-4.68 4.38-9.53 6.61-14.54 0.32-0.71 0.98-1.19 1.75-1.28l2.94-0.31c0.4-0.05 0.7-0.38 0.71-0.78 0.05-4.43 1.92-6.61 5.89-8.75 4.25-2.29 8.2-5.02 11.85-8.2 0.25-0.23 0.55-0.34 0.89-0.33 6.95 0.14 13.53-1.21 19.72-4.06 1.31-0.61 2.68-0.94 4.09-0.98 6.26-0.21 12.17-2.14 18.09-2.43 11.57-0.55 23.05-1.64 34.6-2.42 10.84-0.73 20.74-5.33 31.21-7.84 7.26-1.74 14.48-3.63 21.65-5.68 6.66-1.91 12.84-2.58 19.52-3.36 2.83-0.32 4.7-3.51 7.21-4.34 1.79-0.59 3.66-0.69 5.59-0.28 0.32 0.07 0.65 0.05 0.96-0.04 8.07-2.44 16.25-4.39 24.54-5.84 5.71-1 11.91-2.42 17.3-4.41 10.2-3.76 20.91-6.55 32.14-8.37 4.04-0.65 6.86-3.11 10.73-3.78 6.33-1.09 12.54-2.65 18.63-4.66 5.64-1.86 10.6-1.49 16.16-0.4 0.32 0.06 0.66 0.02 0.95-0.14 4.16-2.2 7.63-3.39 11.52 0.24 0.23 0.22 0.54 0.33 0.86 0.31 2.63-0.2 5.04-1.55 7.36-1.81 5.02-0.55 10.04-1.12 15.05-1.7 2.9-0.33 5.81-2.75 9.36-2.93 4.42-0.23 8.12-1.01 11.1-2.34 4.87-2.18 10.68-6.94 15.71-8.82 5.37-2.01 11.11-1.66 16.08-3.04 5.56-1.54 11.18-3.89 16.35-5.27 6.06-1.62 12.45-2.12 15.32-8.99 0.12-0.3 0.11-0.6-0.02-0.89-1.75-3.79-12.91-5.46-8.18-11.83z" fill="#d2e4fd"/> <path d="m-1585.5 827.37c-17.18 17.03-35.13 33.07-53.85 48.14-12.52 8.65-23.78 18.78-33.79 30.37l-20.41 17.51c-0.5 0.43-1.28 0.23-1.51-0.38-6.61-17.29-7.09-34.29-6.71-52.56 0.01-0.59-0.61-0.98-1.14-0.71l-18.17 9.35c-0.59 0.3-1.31 0.01-1.52-0.62-3.55-10.68-5.77-21.82-6.67-33.41 1.67 1.49 3.56 1.89 5.67 1.2 0.29-0.1 0.6 0.01 0.78 0.25l0.66 0.92c0.23 0.31 0.53 0.49 0.91 0.54 10.27 1.4 18.49 5.98 27.34 11.34 1.23 0.74 2.54 1.15 3.94 1.24 17.07 1.09 34.12 2.27 51.15 3.55 1.32 0.1 1.88 1 1.69 2.69-0.04 0.31 0.21 0.59 0.52 0.59 2.43 0.01 4.48-0.79 6.16-2.39 10.8-10.27 25.09-22.64 42.86-37.13 0.94-0.77 1.64-0.93 2.09-0.49z" fill="#8e9eb7"/> <path d="m-1639.4 875.51-33.17 31.13-0.62-0.76c10.01-11.59 21.27-21.72 33.79-30.37z" fill="#66748f"/> <path d="m-729.3 1076.4c-3.58 19.18-9.58 37.63-18 55.35-0.07 0.15-0.19 0.26-0.35 0.31-0.08 0.02-0.17 0.05-0.28 0.1-16.01-31.6-38.8-56.94-68.37-76.01-0.88-0.57-2.01 0.21-1.79 1.24 0.03 0.12 0.06 0.25 0.11 0.39 4.63 14.98 7.71 30.23 9.26 45.76-11.29-1.75-19.4-2.28-30.08 2.1-4.76 1.96-9.44 5.45-14.68 6.77-9.05 2.28-17.64 2.15-26.32 6.96-0.29 0.16-0.62 0.24-0.95 0.22-6.26-0.35-10.72-0.76-16.16 2.99-2.27 1.56-4.23 3.26-6.96 3.94-30.66 7.64-60.49 17.87-90.41 27.93-0.39 0.13-0.69 0.31-0.92 0.54-0.37 0.38-0.54 0.7-0.52 0.96 0.12 1.3-0.89 2.41-2.19 2.42-5.01 0.01-9.93 0.49-14.74 1.44-6.31 1.25-12.57 4.43-20.2 4.69-0.33 0.01-0.65 0.12-0.9 0.33-2.42 1.97-4.21 3.26-7.43 3.88-10.01 1.9-19.65 4.73-29.52 7.29-11.69 3.04-22.43 7.59-33.56 11.8-0.65 0.25-1.16 0.77-1.39 1.43-9.45 26.67-18.95 53.38-28.51 80.13-0.96 2.68-0.95 5.55-4.64 5.52-7.29-0.06-13.07 3.1-19.47 5.58-3.75 1.46-10.6 1.1-12.88 4.54-16.98 25.69-33.98 51.36-50.99 77.03-1.73 2.6-5.21 2.51-8.33 1.64-6.55-1.82-9.71 0.49-14.56 4.55-0.25 0.21-0.57 0.31-0.9 0.29l-17.27-1.25c23.8-35.52 51.26-68.54 77.53-102.22 22.77-29.19 52.22-73.69 41.17-112.74-1.5-5.3-4.59-11.5-6.57-17.37 0.97-7.84-12.94-10.57-18.73-10.55-14.77 0.05-38.28 16.55-48.23 26.04-43.9 41.89-85.21 89.03-138.02 120.25-47.15 27.87-98 41.44-152.55 40.69-47.07-0.65-96.5-12.08-144.2-26.39-10.31-3.09-16.63-5.19-18.96-6.29-11.45-5.41-19.49-14.74-24.12-27.99 41.51 17.45 83.6 29.75 126.26 36.9 60.28 10.11 120.21 5.86 175.96-19.31 59.59-26.9 106.14-73.79 151.68-119.2 30.8-30.7 65.13-53.97 108.49-57.37 0.72-0.06 1.19-0.77 0.97-1.45-6.87-21.06-21.63-33.58-40.76-42.92-0.44-0.21-0.52-0.81-0.15-1.13 13.55-11.95 29.49-20.36 46.18-26.95 42.61-16.81 92.6-26.1 137.77-20.33 65.87 8.41 115.69 44.32 155.48 96.02 1.23 1.59 2.56 1.79 3.99 0.6 0.25-0.2 0.37-0.46 0.38-0.78 0.96-43.88-12.74-87.63-36.58-123.69-24.73-37.4-61.25-64.77-102.73-81.07-0.61-0.24-0.99-0.87-0.91-1.52 0.14-1.16 1.06-1.68 2.2-1.65 37.16 0.99 72.06 9.92 104.69 26.79 62.05 32.08 102.32 91.22 126.54 155.29 1.49 3.93 3.36 6.11 7.12 7.48z" fill="#8e9eb7"/> <path d="m-1742.6 1025.6c-4.59 12.18-10.65 22.46-18.16 30.85-4.31 4.82-7.24 8.35-8.77 10.6l-48 0.86c-0.34 0.01-0.59-0.31-0.5-0.64 0.04-0.17 0.14-0.34 0.31-0.53 19.77-22.79 43.67-40.51 75.12-41.14z" fill="#66748f"/> <path d="m-1742.6 1025.6c6.28 0.17 12.84 0.31 19.68 0.42 8.32 0.13 14.87 0.5 19.65 1.1 29.26 3.67 59.25 13.33 84.95 26.51-12.04 6.97-23.69 14.31-34.94 22.03-5.73 3.94-11.23 6.52-17.57 5.91-2.76-0.27-4.6-0.38-5.53-0.34l-13.72-3.13-6.53-1.48c-0.61-0.23-1.27-0.41-2-0.54-23.09-4.25-46.73-7.26-70.92-9.03 1.53-2.25 4.46-5.78 8.77-10.6 7.51-8.39 13.57-18.67 18.16-30.85z" fill="#6d95d3"/> <path d="m-1618.4 1053.6c16.67 7.35 31.19 17.9 43.55 31.65 1.86 2.07 2.9 3.92 3.12 5.56 0.27 2.11-0.24 4.21-1.55 6.32-0.17 0.27-0.4 0.43-0.71 0.49-16.06 2.89-32.28 2.31-48.67-1.74-20.01-4.95-37.94-9.85-53.78-14.68 0.93-0.04 2.77 0.07 5.53 0.34 6.34 0.61 11.84-1.97 17.57-5.91 11.25-7.72 22.9-15.06 34.94-22.03z" fill="#66748f"/> <path d="m-1696.6 1076.6 6.53 1.48c-2.17 0.56-4.35 0.07-6.53-1.48z" fill="#203959"/> <path d="m-808.72 1103.6c10.63 50.16-9.44 93.64-43.22 129.45-25.63 27.17-52.23 53.33-79.82 78.46l-0.45-0.29c-0.29-0.18-0.42-0.44-0.37-0.78 0.65-4.79 1.46-9.54 2.45-14.27 8.21-39.36 3.68-79.14-10.93-117.1-1.27-3.31-2.18-5.67-2.72-7.09-0.14-0.37-0.67-0.31-0.73 0.08-7.09 49.47-18.07 98.2-39.46 143.57-2.14-1.99-4.59-3.24-7.34-3.74-0.33-0.06-0.64-0.03-0.95 0.1-13.57 5.69-29.03 10.62-40.11 14.55-8.81 3.11-17.48 5.46-26.34 8.12l-2.13-52.26c-0.03-0.61-0.56-1.07-1.17-1-0.13 0.01-0.29 0.2-0.5 0.57-22.71 39.93-50.41 76.01-83.12 108.26-0.23 0.23-0.66 0.37-0.97 0.4 0.21-0.94-0.15-1.69-1.07-2.25-0.23-0.14-0.23-0.46 0-0.6 0.79-0.49 1.1-1.16 0.92-2.03-0.08-0.41-0.55-0.61-0.91-0.38l-3.88 2.51c-0.23 0.15-0.51 0.18-0.76 0.09-3.53-1.22-6.64-1.42-9.33-0.61-6.48 1.95-11.99 2.92-16.53 2.91-3.28 0-5.06 0.13-6.46 3.46-3.43 8.12-6.93 16.22-10.52 24.31-0.13 0.29-0.37 0.52-0.67 0.64-9.65 3.64-20.23 3.49-30.09 6.44-15.42 4.6-27.54 11.59-43.59 13.53-0.33 0.04-0.63 0.24-0.79 0.53-10.63 18.79-15.92 39.04-15.86 60.74-6.31 5.51-13.29 10.55-20.94 15.11l-2.18 0.46c-0.43-0.18-0.54-0.82-0.33-1.93 0.17-0.84 0.26-1.47 0.28-1.89 3.05-52.15 18.42-100.27 46.11-144.35l17.27 1.25c0.33 0.02 0.65-0.08 0.9-0.29 4.85-4.06 8.01-6.37 14.56-4.55 3.12 0.87 6.6 0.96 8.33-1.64 17.01-25.67 34.01-51.34 50.99-77.03 2.28-3.44 9.13-3.08 12.88-4.54 6.4-2.48 12.18-5.64 19.47-5.58 3.69 0.03 3.68-2.84 4.64-5.52 9.56-26.75 19.06-53.46 28.51-80.13 0.23-0.66 0.74-1.18 1.39-1.43 11.13-4.21 21.87-8.76 33.56-11.8 9.87-2.56 19.51-5.39 29.52-7.29 3.22-0.62 5.01-1.91 7.43-3.88 0.25-0.21 0.57-0.32 0.9-0.33 7.63-0.26 13.89-3.44 20.2-4.69 4.81-0.95 9.73-1.43 14.74-1.44 1.3-0.01 2.31-1.12 2.19-2.42-0.02-0.26 0.15-0.58 0.52-0.96 0.23-0.23 0.53-0.41 0.92-0.54 29.92-10.06 59.75-20.29 90.41-27.93 2.73-0.68 4.69-2.38 6.96-3.94 5.44-3.75 9.9-3.34 16.16-2.99 0.33 0.02 0.66-0.06 0.95-0.22 8.68-4.81 17.27-4.68 26.32-6.96 5.24-1.32 9.92-4.81 14.68-6.77 10.68-4.38 18.79-3.85 30.08-2.1z" fill="#a3b3cb"/> <path d="m-1151.1 1135c1.98 5.87 5.07 12.07 6.57 17.37 11.05 39.05-18.4 83.55-41.17 112.74-26.27 33.68-53.73 66.7-77.53 102.22-27.69 44.08-43.06 92.2-46.11 144.35-0.02 0.42-0.11 1.05-0.28 1.89-0.21 1.11-0.1 1.75 0.33 1.93l-0.81 0.67c-1.05 0.86-2.65 0.4-3.07-0.9-15.67-47.74-36.26-91.13-65.71-131.93-12.07-16.72-27.01-33.35-44.82-49.89-1.67-1.54-3.61-1.98-5.82-1.33 2.31-4 5.53-6.89 9.68-8.68 9.11-3.92 19.41-7.99 26.41-13.59 1.95-1.57 2.1-3.41 0.45-5.52 54.48-24.08 97.9-60.11 138.46-102.33 20.99-21.85 37.49-39.18 49.5-51.99 14.24-15.2 33.81-22.92 53.92-15.01z" fill="#66748f"/> <path d="m-1792.9 1186.2c-2.09-0.24-3.44 0.45-4.05 2.08-1.33-3.77-3.33-6.86-6.02-9.29l0.73-16.89c0.01-0.11 0.09-0.21 0.21-0.22 0.11-0.01 0.22 0.06 0.25 0.17 2.35 8.22 5.31 16.27 8.88 24.15z" fill="#a3b3cb"/> <path d="m-931.76 1311.5-33.74 29.68c-0.47 0.41-1.19 0.06-1.17-0.55l1.04-30.24c0.01-0.39-0.23-0.74-0.59-0.87-0.84-0.31-1.55-0.02-2.14 0.87-29.59 44.75-63.35 89.79-106.64 122.3-1.93 1.45-3.76 2.67-5.49 3.67-0.92 0.53-2.09 0.05-2.37-0.97-3.55-12.99-9.75-24.55-18.6-34.68-0.38-0.44-1.06-0.42-1.42 0.04-49.13 62.56-127.85 98.77-204.2 114.27 7.65-4.56 14.63-9.6 20.94-15.11 50.98-30.64 97.58-66.08 139.13-108.3 0.23-0.23 0.37-0.7 0.41-0.99 0.31-0.03 0.74-0.17 0.97-0.4 32.71-32.25 60.41-68.33 83.12-108.26 0.21-0.37 0.37-0.56 0.5-0.57 0.61-0.07 1.14 0.39 1.17 1l2.13 52.26c-0.45 29.95-4.75 59.32-12.92 88.12-0.09 0.3 0.28 0.53 0.52 0.33 36.13-29.99 65.18-65.81 87.14-107.48 21.39-45.37 32.37-94.1 39.46-143.57 0.06-0.39 0.59-0.45 0.73-0.08 0.54 1.42 1.45 3.78 2.72 7.09 14.61 37.96 19.14 77.74 10.93 117.1-0.99 4.73-1.8 9.48-2.45 14.27-0.05 0.34 0.08 0.6 0.37 0.78z" fill="#8e9eb7"/> <path d="m-1803 1178.9c2.69 2.43 4.69 5.52 6.02 9.29 1.13 7.07 2.49 12.02 4.09 14.85 3.45 6.13 6.83 13.2 10.54 18.38 5.19 7.25 11.44 13.58 18.73 18.97 13.15 11.26 33.1 20.34 50.15 13.52 3.05-1.22 2.14-7.31 2.08-11.5-0.01-0.31 0.08-0.62 0.24-0.89l1.62-2.63c4.59 12.32 10.96 23.62 19.11 33.89 0.27 0.34 0.01 0.84-0.42 0.82-52.05-2.58-111-36.06-112.16-94.7z" fill="#8e9eb7"/> <path d="m-1792.9 1186.2c5.67 7.41 12.14 13.78 19.4 19.09 1.76 4.56 3.26 9.14 6.24 13.21 3.94 5.39 8.3 15.74 3.67 21.98-7.29-5.39-13.54-11.72-18.73-18.97-3.71-5.18-7.09-12.25-10.54-18.38-1.6-2.83-2.96-7.78-4.09-14.85 0.61-1.63 1.96-2.32 4.05-2.08z" fill="#d2e4fd"/> <path d="m-1773.5 1205.2c16.93 12.33 35.34 21.1 55.22 26.29 1.28 0.33 3.2 0.58 5.75 0.74 0.33 0.03 0.65 0.18 0.88 0.42 1.51 1.6 2.22 3.68 2.15 6.24l-1.62 2.63c-0.16 0.27-0.25 0.58-0.24 0.89 0.06 4.19 0.97 10.28-2.08 11.5-17.05 6.82-37-2.26-50.15-13.52 4.63-6.24 0.27-16.59-3.67-21.98-2.98-4.07-4.48-8.65-6.24-13.21z" fill="#a3b3cb"/> <path d="m-1685.8 1298c-2.02-0.17-3.02 0.44-3 1.83 0.01 0.41 0.19 0.79 0.5 1.05 39 32.4 92.42 37.17 141.67 37.26 34.28 0.28 65.1 0.1 97.68-8.93 0.32-0.09 0.62-0.04 0.89 0.16l8.75 6.36c-66.36 24.89-139.97 25.25-206.28 0.05-23.16-8.8-46.57-22.88-60-44.46-0.31-0.51 0.2-1.12 0.75-0.9z" fill="#66748f"/> <path d="m-1392.9 1304.3c1.65 2.11 1.5 3.95-0.45 5.52-7 5.6-17.3 9.67-26.41 13.59-4.15 1.79-7.37 4.68-9.68 8.68l-9.8 3.66-8.75-6.36c-0.27-0.2-0.57-0.25-0.89-0.16-32.58 9.03-63.4 9.21-97.68 8.93-0.85-4.4-4.19-8.2-8.92-8.61-43.4-3.75-85.4-13.5-126.01-29.27-1.05-0.41-1.96-1.09-2.73-2.05l0.5-0.18c0.25-0.09 0.5-0.11 0.75-0.06 23.96 4.13 46.52 10.29 69.62 16.27 73.2 18.94 150.37 18.7 220.45-9.96z" fill="#8e9eb7"/> <path d="m-1685.8 1298c0.55 0.29 1.06 0.36 1.51 0.21 0.77 0.96 1.68 1.64 2.73 2.05 40.61 15.77 82.61 25.52 126.01 29.27 4.73 0.41 8.07 4.21 8.92 8.61-49.25-0.09-102.67-4.86-141.67-37.26-0.31-0.26-0.49-0.64-0.5-1.05-0.02-1.39 0.98-2 3-1.83z" fill="#a3b3cb"/> <path d="m-983.97 1315.6c-21.96 41.67-51.01 77.49-87.14 107.48-0.24 0.2-0.61-0.03-0.52-0.33 8.17-28.8 12.47-58.17 12.92-88.12 8.86-2.66 17.53-5.01 26.34-8.12 11.08-3.93 26.54-8.86 40.11-14.55 0.31-0.13 0.62-0.16 0.95-0.1 2.75 0.5 5.2 1.75 7.34 3.74z" fill="#d2e4fd"/> <path d="m-1146.6 1390.6c-0.04 0.29-0.18 0.76-0.41 0.99-41.55 42.22-88.15 77.66-139.13 108.3-0.06-21.7 5.23-41.95 15.86-60.74 0.16-0.29 0.46-0.49 0.79-0.53 16.05-1.94 28.17-8.93 43.59-13.53 9.86-2.95 20.44-2.8 30.09-6.44 0.3-0.12 0.54-0.35 0.67-0.64 3.59-8.09 7.09-16.19 10.52-24.31 1.4-3.33 3.18-3.46 6.46-3.46 4.54 0.01 10.05-0.96 16.53-2.91 2.69-0.81 5.8-0.61 9.33 0.61 0.25 0.09 0.53 0.06 0.76-0.09l3.88-2.51c0.36-0.23 0.83-0.03 0.91 0.38 0.18 0.87-0.13 1.54-0.92 2.03-0.23 0.14-0.23 0.46 0 0.6 0.92 0.56 1.28 1.31 1.07 2.25z" fill="#d2e4fd"/> </g> </svg>