<?xml version="1.0" encoding="UTF-8" standalone="no" ?>
<!DOCTYPE svg PUBLIC "-//W3C//DTD SVG 1.1//EN" "http://www.w3.org/Graphics/SVG/1.1/DTD/svg11.dtd">
<svg xmlns="http://www.w3.org/2000/svg" xmlns:xlink="http://www.w3.org/1999/xlink" version="1.1" width="120" height="120" viewBox="0 0 120 120" xml:space="preserve">
<desc>Created with Fabric.js 5.3.0</desc>
<defs>
</defs>
<g transform="matrix(1 0 0 1 61.1072087382 59.2969628989)" id="1bzEGJK2tNqHraj46TNkU"  >
<path style="stroke: rgb(252,134,29); stroke-width: 1; stroke-dasharray: none; stroke-linecap: butt; stroke-dashoffset: 0; stroke-linejoin: miter; stroke-miterlimit: 4; fill: rgb(252,134,29); fill-rule: nonzero; opacity: 1;"  transform=" translate(0, 0)" d="M -41.69233 -43.79744 L -1.6907799999999966 -54.11191 L 38.686580000000006 -43.79744 L 38.686580000000006 -32.22511 L 4.472740000000009 -41.53329 L 4.472740000000009 12.256509999999999 L 41.692330000000005 23.120289999999997 L 41.692330000000005 41.44184 L -0.29003999999999763 54.11191 L -41.692339999999994 43.148120000000006 L -41.692339999999994 32.170080000000006 L -0.29003999999999763 43.746930000000006 L 31.711800000000004 32.170080000000006 L 4.472740000000005 24.286200000000004 L 4.472740000000005 35.30613 L -0.29003999999999497 37.18186 L -6.857949999999995 35.30613 L -6.857949999999995 20.886430000000004 L -24.050609999999995 15.845400000000005 L -24.050609999999995 4.591000000000005 L -6.857949999999995 9.045870000000004 L -6.857949999999995 -23.07605 L -30.850139999999996 -16.97992 L -30.850139999999996 29.67893 L -41.69233 26.044700000000002 L -41.69233 11.390540000000003 L -41.69233 8.199930000000004 L -41.69233 -9.087319999999997 L -41.69233 -26.854 L -37.567319999999995 -27.800359999999998 L -6.857939999999996 -35.15108 L -6.857939999999996 -41.53329 L -41.692319999999995 -32.22511 L -41.391439999999996 -44.21324" stroke-linecap="round" />
</g>
<g transform="matrix(1 0 0 1 17.1189396277 51.7661192121)" id="XuBbTFneFPuX652XhXjgi"  >
<path style="stroke: rgb(252,134,29); stroke-width: 1; stroke-dasharray: none; stroke-linecap: butt; stroke-dashoffset: 0; stroke-linejoin: miter; stroke-miterlimit: 4; fill: rgb(255,255,255); fill-opacity: 0; fill-rule: nonzero; opacity: 1;"  transform=" translate(-0.000005, -0.000005)" d="M -2.17391 -5.76821 L 2.1739200000000003 -7.5308399999999995 L 2.1739200000000003 7.530850000000001 L -2.17391 6.100180000000001 z" stroke-linecap="round" />
</g>
<g transform="matrix(1 0 0 1 94.5368836465 61.4496038681)" id="TjQauB5Z67ivcygZs10eC"  >
<path style="stroke: rgb(252,134,29); stroke-width: 1; stroke-dasharray: none; stroke-linecap: butt; stroke-dashoffset: 0; stroke-linejoin: miter; stroke-miterlimit: 4; fill: rgb(252,134,29); fill-rule: nonzero; opacity: 1;"  transform=" translate(0, 0)" d="M -5.73171 -13.90244 L 5.7317 -11.46342 L 5.7317 13.902429999999999 L -5.73171 9.878039999999999 z" stroke-linecap="round" />
</g>
<g transform="matrix(0.9952630922 0 0 0.9952630922 93.5462496988 44.5868258901)" id="TT4YgopC1Da6raT_hh0vw"  >
<path style="stroke: rgb(250,135,0); stroke-width: 1; stroke-dasharray: none; stroke-linecap: butt; stroke-dashoffset: 0; stroke-linejoin: miter; stroke-miterlimit: 4; fill: rgb(252,134,29); fill-rule: nonzero; opacity: 1;"  transform=" translate(0, 0)" d="M -22.07317 -18.17073 L 22.07317 -7.195119999999999 L 22.07317 18.17073 L 11.951220000000001 18.17073 L 11.951220000000001 0.6097499999999982 L -22.073169999999998 -7.195130000000002 z" stroke-linecap="round" />
</g>
<g transform="matrix(1 0 0 1 11.5353527774 51.6784556083)" id="loDx86OlBDOwCrM09OHoN"  >
<path style="stroke: rgb(252,134,29); stroke-width: 1; stroke-dasharray: none; stroke-linecap: butt; stroke-dashoffset: 0; stroke-linejoin: miter; stroke-miterlimit: 4; fill: rgb(252,134,29); fill-rule: nonzero; opacity: 1;"  transform=" translate(0, 0)" d="M 7.7872 -7.44025 L 7.7872 -19.2367 L -7.7872 -15.458749999999998 L -7.7872 13.916730000000001 L 7.7872 19.2367 L 7.7872 7.28604 L 3.54664 6.129519999999999 L 3.54664 -5.82114 z" stroke-linecap="round" />
</g>
</svg>